M48
METRIC,LZ,000.000
;FILE_FORMAT=3:3
;TYPE=PLATED
;Layer: PTH_Through
;EasyEDA v6.5.9, 2022-07-29 16:18:05
;6a4c66b5a8f34d0fa7dc8df532b4a6e8,9fc4434aafee4760887af2be40c81ba0,10
;Gerber Generator version 0.2
;Holesize 1 = 0.305 mm
T01C0.305
%
G05
G90
T01
X013208Y022225
X025273Y019685
X025908Y037211
X027940Y034798
X026162Y034798
X027051Y032004
X026162Y024257
X027940Y024257
X004064Y042291
X025908Y042291
X002286Y021590
X002286Y022352
X014986Y017907
X017018Y017907
X019050Y017907
X025273Y021082
X012954Y017907
X019050Y020447
X026543Y018415
X025908Y038481
X004318Y026035
M30
