G04 Layer: BottomSilkscreenLayer*
G04 EasyEDA v6.5.9, 2022-07-29 16:18:05*
G04 6a4c66b5a8f34d0fa7dc8df532b4a6e8,9fc4434aafee4760887af2be40c81ba0,10*
G04 Gerber Generator version 0.2*
G04 Scale: 100 percent, Rotated: No, Reflected: No *
G04 Dimensions in millimeters *
G04 leading zeros omitted , absolute positions ,4 integer and 5 decimal *
%FSLAX45Y45*%
%MOMM*%

%ADD10C,0.2032*%

%LPD*%
G36*
X1343761Y3649116D02*
G01*
X1342390Y3630218D01*
X1341272Y3619296D01*
X1338783Y3613556D01*
X1333042Y3611067D01*
X1322120Y3609949D01*
X1303274Y3608578D01*
X1303274Y3569106D01*
X1263243Y3569106D01*
X1263243Y3529126D01*
X1303274Y3529126D01*
X1303274Y3569106D01*
X1350670Y3569055D01*
X1365351Y3568496D01*
X1370736Y3567785D01*
X1375003Y3566769D01*
X1378254Y3565296D01*
X1380591Y3563365D01*
X1382115Y3560876D01*
X1382928Y3557727D01*
X1383182Y3553917D01*
X1383030Y3549345D01*
X1381048Y3531311D01*
X1303274Y3528771D01*
X1303274Y3489604D01*
X1341018Y3486912D01*
X1343507Y3369106D01*
X1382725Y3369106D01*
X1384096Y3388004D01*
X1385163Y3398926D01*
X1387551Y3404514D01*
X1392986Y3406597D01*
X1403248Y3406901D01*
X1413510Y3406597D01*
X1418945Y3404514D01*
X1421333Y3398926D01*
X1422400Y3388004D01*
X1423771Y3369106D01*
X1462735Y3369106D01*
X1464106Y3388004D01*
X1465224Y3398926D01*
X1467713Y3404666D01*
X1473454Y3407156D01*
X1484376Y3408273D01*
X1503222Y3409645D01*
X1503222Y3448862D01*
X1385468Y3451351D01*
X1385468Y3486912D01*
X1463243Y3489451D01*
X1463243Y3528618D01*
X1444345Y3529990D01*
X1433474Y3531057D01*
X1427835Y3533394D01*
X1425752Y3538829D01*
X1425448Y3549091D01*
X1425752Y3559403D01*
X1427835Y3564839D01*
X1433474Y3567176D01*
X1444345Y3568242D01*
X1463243Y3569614D01*
X1463243Y3649116D01*
X1423771Y3649116D01*
X1422400Y3630218D01*
X1421333Y3619296D01*
X1418945Y3613708D01*
X1413510Y3611626D01*
X1403248Y3611321D01*
X1392986Y3611626D01*
X1387551Y3613708D01*
X1385163Y3619296D01*
X1384096Y3630218D01*
X1382725Y3649116D01*
G37*
G36*
X1503578Y3649116D02*
G01*
X1501038Y3571341D01*
X1463243Y3568598D01*
X1463243Y3529126D01*
X1542897Y3529126D01*
X1545488Y3606901D01*
X1583232Y3609644D01*
X1583232Y3649116D01*
G37*
G36*
X1663242Y3649116D02*
G01*
X1663242Y3609086D01*
X1903272Y3609086D01*
X1903272Y3409137D01*
X1703222Y3409137D01*
X1703222Y3609086D01*
X1663242Y3609086D01*
X1663242Y3369106D01*
X1943252Y3369106D01*
X1943252Y3649116D01*
G37*
G36*
X943254Y3649116D02*
G01*
X943254Y3609086D01*
X1183233Y3609086D01*
X1183233Y3409137D01*
X983234Y3409137D01*
X983234Y3609086D01*
X943254Y3609086D01*
X943254Y3369106D01*
X1223264Y3369106D01*
X1223264Y3649116D01*
G37*
G36*
X1583232Y3609086D02*
G01*
X1583232Y3569106D01*
X1623263Y3569106D01*
X1623263Y3609086D01*
G37*
G36*
X1743252Y3569106D02*
G01*
X1743252Y3449116D01*
X1863242Y3449116D01*
X1863242Y3569106D01*
G37*
G36*
X1023264Y3569106D02*
G01*
X1023264Y3449116D01*
X1143254Y3449116D01*
X1143254Y3569106D01*
G37*
G36*
X1583232Y3529126D02*
G01*
X1583232Y3489096D01*
X1623263Y3489096D01*
X1623263Y3529126D01*
G37*
G36*
X1543253Y3489096D02*
G01*
X1543253Y3409137D01*
X1503222Y3409137D01*
X1503222Y3369106D01*
X1543253Y3369106D01*
X1543253Y3409137D01*
X1560271Y3409137D01*
X1567129Y3408883D01*
X1573174Y3408222D01*
X1577797Y3407308D01*
X1580286Y3406140D01*
X1581454Y3403650D01*
X1582369Y3399028D01*
X1583029Y3392982D01*
X1583232Y3386175D01*
X1583232Y3369106D01*
X1623263Y3369106D01*
X1623263Y3448608D01*
X1604365Y3449980D01*
X1593443Y3451047D01*
X1587703Y3453536D01*
X1585214Y3459327D01*
X1584096Y3470249D01*
X1582724Y3489096D01*
G37*
G36*
X1263243Y3489096D02*
G01*
X1263243Y3449116D01*
X1303274Y3449116D01*
X1303274Y3489096D01*
G37*
G36*
X1263243Y3409137D02*
G01*
X1263243Y3369106D01*
X1303274Y3369106D01*
X1303274Y3409137D01*
G37*
G36*
X1383233Y3369106D02*
G01*
X1383233Y3329127D01*
X1303274Y3329127D01*
X1303274Y3289604D01*
X1322120Y3288233D01*
X1333042Y3287166D01*
X1338783Y3284677D01*
X1341272Y3278886D01*
X1342390Y3268014D01*
X1343761Y3249117D01*
X1383233Y3249117D01*
X1383233Y3329127D01*
X1423263Y3329127D01*
X1423263Y3369106D01*
G37*
G36*
X1543253Y3369106D02*
G01*
X1543253Y3289604D01*
X1581048Y3286912D01*
X1583588Y3209594D01*
X1602282Y3208274D01*
X1613103Y3207156D01*
X1618792Y3204667D01*
X1621282Y3198876D01*
X1622399Y3188004D01*
X1623771Y3169107D01*
X1662734Y3169107D01*
X1665478Y3206902D01*
X1743252Y3209442D01*
X1743252Y3289096D01*
X1703730Y3289096D01*
X1703781Y3289655D01*
X1703222Y3289604D01*
X1703222Y3289096D01*
X1703730Y3289096D01*
X1701038Y3251352D01*
X1665478Y3251352D01*
X1665478Y3286912D01*
X1703222Y3289604D01*
X1703222Y3328873D01*
X1585468Y3331311D01*
X1582724Y3369106D01*
G37*
G36*
X1463243Y3369106D02*
G01*
X1463243Y3329127D01*
X1503222Y3329127D01*
X1503222Y3369106D01*
G37*
G36*
X1743252Y3329127D02*
G01*
X1743252Y3289604D01*
X1781048Y3286912D01*
X1783588Y3209594D01*
X1802282Y3208274D01*
X1813102Y3207156D01*
X1818792Y3204667D01*
X1821281Y3198876D01*
X1822399Y3188004D01*
X1823770Y3169107D01*
X1862734Y3169107D01*
X1864106Y3188004D01*
X1865223Y3198926D01*
X1867712Y3204667D01*
X1873453Y3207156D01*
X1884375Y3208274D01*
X1903272Y3209645D01*
X1903272Y3248609D01*
X1884375Y3249980D01*
X1873453Y3251047D01*
X1867865Y3253384D01*
X1865782Y3258820D01*
X1865477Y3269132D01*
X1865477Y3286912D01*
X1943252Y3289452D01*
X1943252Y3329127D01*
G37*
G36*
X1223568Y3329127D02*
G01*
X1221028Y3251352D01*
X1183233Y3248609D01*
X1183233Y3209086D01*
X1263243Y3209086D01*
X1263243Y3329127D01*
G37*
G36*
X1143762Y3329127D02*
G01*
X1142390Y3310229D01*
X1141272Y3299307D01*
X1138783Y3293567D01*
X1133043Y3291078D01*
X1122121Y3289960D01*
X1103223Y3288588D01*
X1103223Y3209086D01*
X1142746Y3209086D01*
X1144117Y3227984D01*
X1145184Y3238906D01*
X1147673Y3244646D01*
X1153464Y3247136D01*
X1164336Y3248253D01*
X1183233Y3249625D01*
X1183233Y3329127D01*
G37*
G36*
X1063244Y3329127D02*
G01*
X1063244Y3289096D01*
X1103223Y3289096D01*
X1103223Y3329127D01*
G37*
G36*
X983234Y3329127D02*
G01*
X983234Y3289096D01*
X943254Y3289096D01*
X943254Y3249117D01*
X983234Y3249117D01*
X983234Y3289096D01*
X1023264Y3289096D01*
X1023264Y3329127D01*
G37*
G36*
X943254Y2809087D02*
G01*
X943254Y2729128D01*
X982726Y2729128D01*
X984097Y2748026D01*
X985215Y2758897D01*
X987704Y2764688D01*
X993444Y2767177D01*
X1004366Y2768244D01*
X1023264Y2769616D01*
X1023264Y2809087D01*
G37*
G36*
X1303274Y3249117D02*
G01*
X1303274Y3209086D01*
X1343253Y3209086D01*
X1343253Y3249117D01*
G37*
G36*
X1023264Y3249117D02*
G01*
X1023264Y3209086D01*
X1063244Y3209086D01*
X1063244Y3249117D01*
G37*
G36*
X1743252Y3209086D02*
G01*
X1743252Y3169107D01*
X1783232Y3169107D01*
X1783232Y3209086D01*
G37*
G36*
X943254Y3169107D02*
G01*
X943254Y3089605D01*
X962152Y3088233D01*
X973023Y3087166D01*
X978662Y3084830D01*
X980744Y3079394D01*
X981049Y3069132D01*
X980744Y3058820D01*
X978662Y3053384D01*
X973023Y3051048D01*
X962152Y3049981D01*
X943254Y3048609D01*
X943254Y2889097D01*
X1063244Y2889097D01*
X1063244Y2928772D01*
X985469Y2931312D01*
X985469Y3006902D01*
X1004112Y3008223D01*
X1014831Y3009341D01*
X1020521Y3011830D01*
X1023010Y3017520D01*
X1025194Y3039008D01*
X1027734Y3044698D01*
X1033475Y3047136D01*
X1044346Y3048254D01*
X1063244Y3049625D01*
X1063244Y3088589D01*
X1025448Y3091332D01*
X1022908Y3169107D01*
G37*
G36*
X1783232Y3169107D02*
G01*
X1783232Y3129127D01*
X1743252Y3129127D01*
X1743252Y3089097D01*
X1663242Y3089097D01*
X1663242Y3129127D01*
X1623263Y3129127D01*
X1623263Y3089097D01*
X1583232Y3089097D01*
X1583232Y3049117D01*
X1582724Y3049117D01*
X1582775Y3048660D01*
X1583232Y3048609D01*
X1583232Y3049117D01*
X1623263Y3049117D01*
X1623263Y3089097D01*
X1663242Y3089097D01*
X1663242Y3049117D01*
X1743252Y3049117D01*
X1743252Y3089097D01*
X1783232Y3089097D01*
X1783232Y3129127D01*
X1823262Y3129127D01*
X1823262Y3089097D01*
X1863242Y3089097D01*
X1863242Y3129127D01*
X1823262Y3129127D01*
X1823262Y3169107D01*
G37*
G36*
X1663242Y3169107D02*
G01*
X1663242Y3129127D01*
X1703222Y3129127D01*
X1703222Y3169107D01*
G37*
G36*
X1503222Y3169107D02*
G01*
X1503222Y3129127D01*
X1583232Y3129127D01*
X1583232Y3169107D01*
G37*
G36*
X1903272Y3129127D02*
G01*
X1903272Y2969107D01*
X1943252Y2969107D01*
X1943252Y3129127D01*
G37*
G36*
X1183233Y3089605D02*
G01*
X1182776Y3089554D01*
X1182725Y3088589D01*
X1183233Y3088640D01*
G37*
G36*
X1823262Y3009138D02*
G01*
X1823262Y2969107D01*
X1863242Y2969107D01*
X1863242Y3009138D01*
G37*
G36*
X1503781Y2929128D02*
G01*
X1501902Y2903982D01*
X1501292Y2899308D01*
X1500327Y2895904D01*
X1498803Y2893517D01*
X1496415Y2891993D01*
X1492961Y2891078D01*
X1488186Y2890469D01*
X1463243Y2888640D01*
X1463243Y2849118D01*
X1583232Y2849118D01*
X1583232Y2649118D01*
X1623263Y2649118D01*
X1623263Y2849118D01*
X1583232Y2849118D01*
X1583232Y2888640D01*
X1558290Y2890469D01*
X1553565Y2891078D01*
X1550111Y2891993D01*
X1547723Y2893517D01*
X1546148Y2895904D01*
X1545183Y2899308D01*
X1544574Y2903982D01*
X1542745Y2929128D01*
G37*
G36*
X1663242Y2929128D02*
G01*
X1663242Y2889097D01*
X1903272Y2889097D01*
X1903272Y2689098D01*
X1703222Y2689098D01*
X1703222Y2889097D01*
X1663242Y2889097D01*
X1663242Y2649118D01*
X1943252Y2649118D01*
X1943252Y2929128D01*
G37*
G36*
X1183233Y2929128D02*
G01*
X1183233Y2889097D01*
X1223264Y2889097D01*
X1223264Y2929128D01*
G37*
G36*
X1463243Y2889605D02*
G01*
X1462786Y2889554D01*
X1462735Y2888589D01*
X1463243Y2888640D01*
G37*
G36*
X1743252Y2849118D02*
G01*
X1743252Y2729128D01*
X1863242Y2729128D01*
X1863242Y2849118D01*
G37*
G36*
X1463751Y2809087D02*
G01*
X1461008Y2771343D01*
X1343253Y2768854D01*
X1343253Y2729128D01*
X1360271Y2729128D01*
X1367129Y2728874D01*
X1373174Y2728264D01*
X1377797Y2727299D01*
X1380286Y2726131D01*
X1381455Y2723642D01*
X1382369Y2719070D01*
X1383030Y2713024D01*
X1383233Y2706166D01*
X1383233Y2689098D01*
X1343253Y2689098D01*
X1343253Y2729128D01*
X1303274Y2729128D01*
X1303274Y2689098D01*
X1343253Y2689098D01*
X1343253Y2649118D01*
X1383233Y2649118D01*
X1383233Y2689098D01*
X1502918Y2689098D01*
X1505458Y2766872D01*
X1543253Y2769616D01*
X1543253Y2809087D01*
G37*
G36*
X983742Y2729128D02*
G01*
X982370Y2710230D01*
X981303Y2699308D01*
X978814Y2693568D01*
X973023Y2691079D01*
X962152Y2689961D01*
X943254Y2688590D01*
X943254Y2649118D01*
X1063244Y2649118D01*
X1063244Y2688590D01*
X1044346Y2689961D01*
X1033475Y2691079D01*
X1027684Y2693568D01*
X1025194Y2699308D01*
X1024128Y2710230D01*
X1022756Y2729128D01*
G37*
G36*
X1503222Y2689098D02*
G01*
X1503222Y2649118D01*
X1543253Y2649118D01*
X1543253Y2689098D01*
G37*
G36*
X1023264Y2769108D02*
G01*
X1023264Y2729128D01*
X1063244Y2729128D01*
X1063244Y2769108D01*
G37*
G36*
X1463751Y3289096D02*
G01*
X1461008Y3251352D01*
X1383588Y3248761D01*
X1381048Y3171342D01*
X1305458Y3171342D01*
X1302715Y3209086D01*
X1263751Y3209086D01*
X1261008Y3171342D01*
X1063244Y3168954D01*
X1063244Y3129635D01*
X1101039Y3126892D01*
X1103579Y3049117D01*
X1142746Y3049117D01*
X1144117Y3068015D01*
X1145184Y3078886D01*
X1147673Y3084677D01*
X1153464Y3087166D01*
X1164336Y3088233D01*
X1182776Y3089554D01*
X1184097Y3107740D01*
X1185214Y3118612D01*
X1187551Y3124504D01*
X1192682Y3127095D01*
X1202182Y3128264D01*
X1208481Y3128518D01*
X1213510Y3128060D01*
X1217371Y3126740D01*
X1220165Y3124504D01*
X1221994Y3121253D01*
X1222908Y3116783D01*
X1223060Y3111042D01*
X1222451Y3103930D01*
X1221130Y3097123D01*
X1218184Y3093161D01*
X1212240Y3091078D01*
X1201877Y3089960D01*
X1183233Y3088640D01*
X1183233Y3049473D01*
X1261008Y3046882D01*
X1261008Y3011322D01*
X1305458Y3011322D01*
X1305458Y3029102D01*
X1305814Y3039211D01*
X1307693Y3044698D01*
X1312672Y3047136D01*
X1322171Y3048254D01*
X1328470Y3048508D01*
X1333500Y3048050D01*
X1337360Y3046780D01*
X1340154Y3044494D01*
X1341983Y3041243D01*
X1342898Y3036773D01*
X1343050Y3031032D01*
X1342491Y3023920D01*
X1341170Y3017113D01*
X1338427Y3013303D01*
X1332890Y3011678D01*
X1323238Y3011322D01*
X1261008Y3011322D01*
X1063244Y3008934D01*
X1063244Y2969615D01*
X1101039Y2966872D01*
X1101039Y2891332D01*
X1063244Y2888589D01*
X1063244Y2851353D01*
X1145489Y2851353D01*
X1145489Y2966872D01*
X1217371Y2968396D01*
X1239875Y2968294D01*
X1247648Y2967888D01*
X1253439Y2967228D01*
X1257503Y2966262D01*
X1260043Y2964992D01*
X1261262Y2963418D01*
X1261719Y2961132D01*
X1262329Y2951022D01*
X1262583Y2935071D01*
X1262481Y2915208D01*
X1261008Y2851353D01*
X1063244Y2851353D01*
X1063244Y2809646D01*
X1101039Y2806903D01*
X1101039Y2731312D01*
X1145489Y2731312D01*
X1145489Y2806903D01*
X1212545Y2808325D01*
X1232966Y2808274D01*
X1248867Y2807766D01*
X1254556Y2807360D01*
X1258417Y2806852D01*
X1260144Y2806293D01*
X1261364Y2803753D01*
X1262329Y2799080D01*
X1262989Y2793034D01*
X1263243Y2786126D01*
X1263243Y2769108D01*
X1183741Y2769108D01*
X1182370Y2750210D01*
X1181303Y2739339D01*
X1178966Y2733700D01*
X1173530Y2731617D01*
X1163269Y2731312D01*
X1101039Y2731312D01*
X1063244Y2728620D01*
X1063244Y2689301D01*
X1221028Y2686913D01*
X1223772Y2649118D01*
X1263243Y2649118D01*
X1263243Y2769108D01*
X1343253Y2769108D01*
X1343253Y2808579D01*
X1324356Y2809951D01*
X1313434Y2811018D01*
X1307846Y2813405D01*
X1305763Y2818841D01*
X1305458Y2829102D01*
X1305763Y2839364D01*
X1307846Y2844800D01*
X1313383Y2847187D01*
X1334820Y2849321D01*
X1340561Y2851810D01*
X1342999Y2857500D01*
X1345234Y2878734D01*
X1347520Y2884424D01*
X1352346Y2887065D01*
X1361186Y2888234D01*
X1367739Y2888589D01*
X1372920Y2888437D01*
X1376781Y2887573D01*
X1379575Y2885744D01*
X1381455Y2882900D01*
X1382572Y2878785D01*
X1383080Y2873248D01*
X1383233Y2849118D01*
X1343253Y2849118D01*
X1343253Y2809087D01*
X1383233Y2809087D01*
X1383233Y2849118D01*
X1422755Y2849118D01*
X1424127Y2868015D01*
X1425194Y2878886D01*
X1427683Y2884678D01*
X1433474Y2887167D01*
X1444345Y2888234D01*
X1462786Y2889554D01*
X1464564Y2914040D01*
X1465173Y2918815D01*
X1466138Y2922270D01*
X1467662Y2924657D01*
X1470050Y2926181D01*
X1473454Y2927146D01*
X1478127Y2927756D01*
X1503222Y2929636D01*
X1503222Y2969107D01*
X1423771Y2969107D01*
X1421028Y2931312D01*
X1345488Y2931312D01*
X1345488Y2949092D01*
X1345793Y2959404D01*
X1347825Y2964840D01*
X1353413Y2967177D01*
X1364183Y2968244D01*
X1382928Y2969615D01*
X1385468Y3046882D01*
X1428496Y3048355D01*
X1441704Y3048355D01*
X1452270Y3047847D01*
X1456080Y3047441D01*
X1458772Y3046933D01*
X1460144Y3046323D01*
X1461312Y3043783D01*
X1462328Y3039160D01*
X1462989Y3033115D01*
X1463243Y3026308D01*
X1463243Y3009442D01*
X1541018Y3006902D01*
X1543608Y2929585D01*
X1562303Y2928264D01*
X1573123Y2927146D01*
X1578813Y2924657D01*
X1581302Y2918815D01*
X1582420Y2907741D01*
X1583740Y2889097D01*
X1583232Y2889097D01*
X1583232Y2888640D01*
X1583791Y2888589D01*
X1583740Y2889097D01*
X1622907Y2889097D01*
X1625447Y2966872D01*
X1703222Y2969463D01*
X1703222Y3008833D01*
X1585468Y3011322D01*
X1582775Y3048660D01*
X1564335Y3049981D01*
X1553464Y3051048D01*
X1547723Y3053537D01*
X1545234Y3059226D01*
X1542999Y3080715D01*
X1540560Y3086404D01*
X1534820Y3088894D01*
X1513382Y3091078D01*
X1507693Y3093567D01*
X1505204Y3099358D01*
X1504086Y3110230D01*
X1502714Y3129127D01*
X1463751Y3129127D01*
X1461008Y3091332D01*
X1385468Y3091332D01*
X1385468Y3109112D01*
X1385773Y3119374D01*
X1387856Y3124809D01*
X1393393Y3127197D01*
X1404213Y3128264D01*
X1422908Y3129584D01*
X1425448Y3206902D01*
X1443228Y3206902D01*
X1453540Y3206597D01*
X1458976Y3204514D01*
X1461312Y3198926D01*
X1462379Y3188004D01*
X1463751Y3169107D01*
X1502714Y3169107D01*
X1504086Y3188004D01*
X1505204Y3198926D01*
X1507693Y3204667D01*
X1513433Y3207156D01*
X1524355Y3208274D01*
X1543253Y3209645D01*
X1543253Y3248609D01*
X1524355Y3249980D01*
X1513433Y3251047D01*
X1507693Y3253536D01*
X1505204Y3259328D01*
X1504086Y3270199D01*
X1502714Y3289096D01*
G37*
D10*
X2578100Y4106280D02*
G01*
X2578100Y3982191D01*
X2578100Y4047190D02*
G01*
X2566281Y4059008D01*
X2554462Y4064916D01*
X2536736Y4064916D01*
X2524917Y4059008D01*
X2513100Y4047190D01*
X2507190Y4029463D01*
X2507190Y4017645D01*
X2513100Y3999918D01*
X2524917Y3988099D01*
X2536736Y3982191D01*
X2554462Y3982191D01*
X2566281Y3988099D01*
X2578100Y3999918D01*
X2438646Y4064916D02*
G01*
X2450465Y4059008D01*
X2462281Y4047190D01*
X2468191Y4029463D01*
X2468191Y4017645D01*
X2462281Y3999918D01*
X2450465Y3988099D01*
X2438646Y3982191D01*
X2420919Y3982191D01*
X2409100Y3988099D01*
X2397282Y3999918D01*
X2391371Y4017645D01*
X2391371Y4029463D01*
X2397282Y4047190D01*
X2409100Y4059008D01*
X2420919Y4064916D01*
X2438646Y4064916D01*
X2281463Y4064916D02*
G01*
X2281463Y3982191D01*
X2281463Y4047190D02*
G01*
X2293282Y4059008D01*
X2305100Y4064916D01*
X2322827Y4064916D01*
X2334646Y4059008D01*
X2346464Y4047190D01*
X2352372Y4029463D01*
X2352372Y4017645D01*
X2346464Y3999918D01*
X2334646Y3988099D01*
X2322827Y3982191D01*
X2305100Y3982191D01*
X2293282Y3988099D01*
X2281463Y3999918D01*
X2242464Y4064916D02*
G01*
X2242464Y3982191D01*
X2242464Y4029463D02*
G01*
X2236556Y4047190D01*
X2224737Y4059008D01*
X2212919Y4064916D01*
X2195192Y4064916D01*
X2085281Y4106280D02*
G01*
X2085281Y3982191D01*
X2085281Y4047190D02*
G01*
X2097100Y4059008D01*
X2108918Y4064916D01*
X2126645Y4064916D01*
X2138464Y4059008D01*
X2150282Y4047190D01*
X2156190Y4029463D01*
X2156190Y4017645D01*
X2150282Y3999918D01*
X2138464Y3988099D01*
X2126645Y3982191D01*
X2108918Y3982191D01*
X2097100Y3988099D01*
X2085281Y3999918D01*
X1884375Y4106280D02*
G01*
X1884375Y3982191D01*
X1884375Y4047190D02*
G01*
X1896191Y4059008D01*
X1908009Y4064916D01*
X1925736Y4064916D01*
X1937555Y4059008D01*
X1949373Y4047190D01*
X1955281Y4029463D01*
X1955281Y4017645D01*
X1949373Y3999918D01*
X1937555Y3988099D01*
X1925736Y3982191D01*
X1908009Y3982191D01*
X1896191Y3988099D01*
X1884375Y3999918D01*
X1845373Y4029463D02*
G01*
X1774464Y4029463D01*
X1774464Y4041282D01*
X1780374Y4053099D01*
X1786282Y4059008D01*
X1798101Y4064916D01*
X1815828Y4064916D01*
X1827646Y4059008D01*
X1839465Y4047190D01*
X1845373Y4029463D01*
X1845373Y4017645D01*
X1839465Y3999918D01*
X1827646Y3988099D01*
X1815828Y3982191D01*
X1798101Y3982191D01*
X1786282Y3988099D01*
X1774464Y3999918D01*
X1670466Y4047190D02*
G01*
X1676374Y4059008D01*
X1694101Y4064916D01*
X1711827Y4064916D01*
X1729557Y4059008D01*
X1735465Y4047190D01*
X1729557Y4035371D01*
X1717738Y4029463D01*
X1688193Y4023555D01*
X1676374Y4017645D01*
X1670466Y4005826D01*
X1670466Y3999918D01*
X1676374Y3988099D01*
X1694101Y3982191D01*
X1711827Y3982191D01*
X1729557Y3988099D01*
X1735465Y3999918D01*
X1631464Y4106280D02*
G01*
X1625556Y4100372D01*
X1619646Y4106280D01*
X1625556Y4112191D01*
X1631464Y4106280D01*
X1625556Y4064916D02*
G01*
X1625556Y3982191D01*
X1509737Y4064916D02*
G01*
X1509737Y3970373D01*
X1515648Y3952646D01*
X1521556Y3946735D01*
X1533375Y3940827D01*
X1551101Y3940827D01*
X1562920Y3946735D01*
X1509737Y4047190D02*
G01*
X1521556Y4059008D01*
X1533375Y4064916D01*
X1551101Y4064916D01*
X1562920Y4059008D01*
X1574739Y4047190D01*
X1580647Y4029463D01*
X1580647Y4017645D01*
X1574739Y3999918D01*
X1562920Y3988099D01*
X1551101Y3982191D01*
X1533375Y3982191D01*
X1521556Y3988099D01*
X1509737Y3999918D01*
X1470738Y4064916D02*
G01*
X1470738Y3982191D01*
X1470738Y4041282D02*
G01*
X1453012Y4059008D01*
X1441193Y4064916D01*
X1423466Y4064916D01*
X1411648Y4059008D01*
X1405737Y4041282D01*
X1405737Y3982191D01*
X1366738Y4029463D02*
G01*
X1295829Y4029463D01*
X1295829Y4041282D01*
X1301739Y4053099D01*
X1307647Y4059008D01*
X1319466Y4064916D01*
X1337193Y4064916D01*
X1349011Y4059008D01*
X1360830Y4047190D01*
X1366738Y4029463D01*
X1366738Y4017645D01*
X1360830Y3999918D01*
X1349011Y3988099D01*
X1337193Y3982191D01*
X1319466Y3982191D01*
X1307647Y3988099D01*
X1295829Y3999918D01*
X1185920Y4106280D02*
G01*
X1185920Y3982191D01*
X1185920Y4047190D02*
G01*
X1197739Y4059008D01*
X1209558Y4064916D01*
X1227284Y4064916D01*
X1239103Y4059008D01*
X1250922Y4047190D01*
X1256830Y4029463D01*
X1256830Y4017645D01*
X1250922Y3999918D01*
X1239103Y3988099D01*
X1227284Y3982191D01*
X1209558Y3982191D01*
X1197739Y3988099D01*
X1185920Y3999918D01*
X1055921Y4106280D02*
G01*
X1055921Y3982191D01*
X1055921Y4047190D02*
G01*
X1044102Y4059008D01*
X1032283Y4064916D01*
X1014557Y4064916D01*
X1002738Y4059008D01*
X990922Y4047190D01*
X985012Y4029463D01*
X985012Y4017645D01*
X990922Y3999918D01*
X1002738Y3988099D01*
X1014557Y3982191D01*
X1032283Y3982191D01*
X1044102Y3988099D01*
X1055921Y3999918D01*
X940102Y4064916D02*
G01*
X904648Y3982191D01*
X869193Y4064916D02*
G01*
X904648Y3982191D01*
X916467Y3958554D01*
X928286Y3946735D01*
X940102Y3940827D01*
X946012Y3940827D01*
X721466Y4106280D02*
G01*
X721466Y4005826D01*
X715558Y3988099D01*
X703740Y3982191D01*
X691921Y3982191D01*
X739193Y4064916D02*
G01*
X697831Y4064916D01*
X652922Y4106280D02*
G01*
X652922Y3982191D01*
X613923Y4064916D02*
G01*
X613923Y3982191D01*
X613923Y4041282D02*
G01*
X596193Y4059008D01*
X584377Y4064916D01*
X566648Y4064916D01*
X554832Y4059008D01*
X548921Y4041282D01*
X548921Y3982191D01*
X548921Y4041282D02*
G01*
X531195Y4059008D01*
X519376Y4064916D01*
X501650Y4064916D01*
X489831Y4059008D01*
X483923Y4041282D01*
X483923Y3982191D01*
X1656290Y3843990D02*
G01*
X1668109Y3855808D01*
X1679928Y3861716D01*
X1697654Y3861716D01*
X1709473Y3855808D01*
X1721291Y3843990D01*
X1727200Y3826263D01*
X1727200Y3814445D01*
X1721291Y3796718D01*
X1709473Y3784899D01*
X1697654Y3778991D01*
X1679928Y3778991D01*
X1668109Y3784899D01*
X1656290Y3796718D01*
X1587746Y3861716D02*
G01*
X1599564Y3855808D01*
X1611381Y3843990D01*
X1617291Y3826263D01*
X1617291Y3814445D01*
X1611381Y3796718D01*
X1599564Y3784899D01*
X1587746Y3778991D01*
X1570019Y3778991D01*
X1558201Y3784899D01*
X1546382Y3796718D01*
X1540471Y3814445D01*
X1540471Y3826263D01*
X1546382Y3843990D01*
X1558201Y3855808D01*
X1570019Y3861716D01*
X1587746Y3861716D01*
X1471927Y3861716D02*
G01*
X1483746Y3855808D01*
X1495564Y3843990D01*
X1501472Y3826263D01*
X1501472Y3814445D01*
X1495564Y3796718D01*
X1483746Y3784899D01*
X1471927Y3778991D01*
X1454200Y3778991D01*
X1442382Y3784899D01*
X1430563Y3796718D01*
X1424655Y3814445D01*
X1424655Y3826263D01*
X1430563Y3843990D01*
X1442382Y3855808D01*
X1454200Y3861716D01*
X1471927Y3861716D01*
X1385656Y3903080D02*
G01*
X1385656Y3778991D01*
X1275745Y3861716D02*
G01*
X1275745Y3778991D01*
X1275745Y3843990D02*
G01*
X1287564Y3855808D01*
X1299382Y3861716D01*
X1317109Y3861716D01*
X1328928Y3855808D01*
X1340746Y3843990D01*
X1346654Y3826263D01*
X1346654Y3814445D01*
X1340746Y3796718D01*
X1328928Y3784899D01*
X1317109Y3778991D01*
X1299382Y3778991D01*
X1287564Y3784899D01*
X1275745Y3796718D01*
X1171747Y3861716D02*
G01*
X1236746Y3778991D01*
X1236746Y3861716D02*
G01*
X1171747Y3861716D01*
X1236746Y3778991D02*
G01*
X1171747Y3778991D01*
M02*
