G04 Layer: TopPasteMaskLayer*
G04 EasyEDA v6.5.9, 2022-07-29 16:18:05*
G04 6a4c66b5a8f34d0fa7dc8df532b4a6e8,9fc4434aafee4760887af2be40c81ba0,10*
G04 Gerber Generator version 0.2*
G04 Scale: 100 percent, Rotated: No, Reflected: No *
G04 Dimensions in millimeters *
G04 leading zeros omitted , absolute positions ,4 integer and 5 decimal *
%FSLAX45Y45*%
%MOMM*%

%ADD10R,1.0000X2.7000*%
%ADD11R,2.0000X3.8000*%
%ADD12R,0.7000X1.2500*%
%ADD13C,0.7874*%
%ADD14R,1.9000X2.3760*%
%ADD15R,2.1000X0.9500*%
%ADD16R,0.9500X2.1000*%
%ADD17R,1.3300X1.3300*%
%ADD18R,0.6000X1.0700*%
%ADD19R,0.9800X2.3400*%
%ADD20R,0.8000X0.8000*%

%LPD*%
G36*
X92100Y2084882D02*
G01*
X87122Y2079904D01*
X87122Y2034895D01*
X92100Y2029917D01*
X140106Y2029917D01*
X147116Y2034895D01*
X147116Y2079904D01*
X140106Y2084882D01*
G37*
G36*
X190093Y2084882D02*
G01*
X183083Y2079904D01*
X183083Y2034895D01*
X190093Y2029917D01*
X238099Y2029917D01*
X243078Y2034895D01*
X243078Y2079904D01*
X238099Y2084882D01*
G37*
G36*
X155600Y3850182D02*
G01*
X150622Y3845204D01*
X150622Y3800195D01*
X155600Y3795217D01*
X203606Y3795217D01*
X210616Y3800195D01*
X210616Y3845204D01*
X203606Y3850182D01*
G37*
G36*
X253593Y3850182D02*
G01*
X246583Y3845204D01*
X246583Y3800195D01*
X253593Y3795217D01*
X301599Y3795217D01*
X306578Y3800195D01*
X306578Y3845204D01*
X301599Y3850182D01*
G37*
G36*
X2744622Y3118408D02*
G01*
X2739593Y3113379D01*
X2739593Y3090621D01*
X2776575Y3090621D01*
X2776575Y3057601D01*
X2739593Y3057601D01*
X2739593Y3033420D01*
X2744622Y3028391D01*
X2824581Y3028391D01*
X2829610Y3033420D01*
X2829610Y3113379D01*
X2824581Y3118408D01*
G37*
G36*
X2585618Y3118408D02*
G01*
X2580589Y3113379D01*
X2580589Y3033420D01*
X2585618Y3028391D01*
X2664612Y3028391D01*
X2669590Y3033420D01*
X2669590Y3057601D01*
X2631592Y3057601D01*
X2631592Y3090621D01*
X2669590Y3090621D01*
X2669590Y3113379D01*
X2664612Y3118408D01*
G37*
G36*
X2744622Y3651808D02*
G01*
X2739593Y3646779D01*
X2739593Y3624021D01*
X2776575Y3624021D01*
X2776575Y3591001D01*
X2739593Y3591001D01*
X2739593Y3566820D01*
X2744622Y3561791D01*
X2824581Y3561791D01*
X2829610Y3566820D01*
X2829610Y3646779D01*
X2824581Y3651808D01*
G37*
G36*
X2585618Y3651808D02*
G01*
X2580589Y3646779D01*
X2580589Y3566820D01*
X2585618Y3561791D01*
X2664612Y3561791D01*
X2669590Y3566820D01*
X2669590Y3591001D01*
X2631592Y3591001D01*
X2631592Y3624021D01*
X2669590Y3624021D01*
X2669590Y3646779D01*
X2664612Y3651808D01*
G37*
G36*
X2744622Y2343708D02*
G01*
X2739593Y2338679D01*
X2739593Y2315921D01*
X2776575Y2315921D01*
X2776575Y2282901D01*
X2739593Y2282901D01*
X2739593Y2258720D01*
X2744622Y2253691D01*
X2824581Y2253691D01*
X2829610Y2258720D01*
X2829610Y2338679D01*
X2824581Y2343708D01*
G37*
G36*
X2585618Y2343708D02*
G01*
X2580589Y2338679D01*
X2580589Y2258720D01*
X2585618Y2253691D01*
X2664612Y2253691D01*
X2669590Y2258720D01*
X2669590Y2282901D01*
X2631592Y2282901D01*
X2631592Y2315921D01*
X2669590Y2315921D01*
X2669590Y2338679D01*
X2664612Y2343708D01*
G37*
G36*
X2585618Y2877108D02*
G01*
X2580589Y2872079D01*
X2580589Y2792120D01*
X2585618Y2787091D01*
X2665577Y2787091D01*
X2670606Y2792120D01*
X2670606Y2814878D01*
X2633624Y2814878D01*
X2633624Y2847898D01*
X2670606Y2847898D01*
X2670606Y2872079D01*
X2665577Y2877108D01*
G37*
G36*
X2745587Y2877108D02*
G01*
X2740609Y2872079D01*
X2740609Y2847898D01*
X2778607Y2847898D01*
X2778607Y2814878D01*
X2740609Y2814878D01*
X2740609Y2792120D01*
X2745587Y2787091D01*
X2824581Y2787091D01*
X2829610Y2792120D01*
X2829610Y2872079D01*
X2824581Y2877108D01*
G37*
G36*
X268122Y4020108D02*
G01*
X263093Y4015079D01*
X263093Y3992321D01*
X300126Y3992321D01*
X300126Y3959301D01*
X263093Y3959301D01*
X263093Y3935120D01*
X268122Y3930091D01*
X348081Y3930091D01*
X353110Y3935120D01*
X353110Y4015079D01*
X348081Y4020108D01*
G37*
G36*
X109118Y4020108D02*
G01*
X104089Y4015079D01*
X104089Y3935120D01*
X109118Y3930091D01*
X188112Y3930091D01*
X193090Y3935120D01*
X193090Y3959301D01*
X155092Y3959301D01*
X155092Y3992321D01*
X193090Y3992321D01*
X193090Y4015079D01*
X188112Y4020108D01*
G37*
G36*
X1522120Y2245410D02*
G01*
X1517091Y2240381D01*
X1517091Y2160422D01*
X1522120Y2155393D01*
X1544878Y2155393D01*
X1544878Y2192426D01*
X1577898Y2192426D01*
X1577898Y2155393D01*
X1602079Y2155393D01*
X1607108Y2160422D01*
X1607108Y2240381D01*
X1602079Y2245410D01*
G37*
G36*
X1522120Y2085390D02*
G01*
X1517091Y2080412D01*
X1517091Y2001418D01*
X1522120Y1996389D01*
X1602079Y1996389D01*
X1607108Y2001418D01*
X1607108Y2080412D01*
X1602079Y2085390D01*
X1577898Y2085390D01*
X1577898Y2047392D01*
X1544878Y2047392D01*
X1544878Y2085390D01*
G37*
G36*
X2004720Y2245410D02*
G01*
X1999691Y2240381D01*
X1999691Y2160422D01*
X2004720Y2155393D01*
X2027478Y2155393D01*
X2027478Y2192426D01*
X2060498Y2192426D01*
X2060498Y2155393D01*
X2084679Y2155393D01*
X2089708Y2160422D01*
X2089708Y2240381D01*
X2084679Y2245410D01*
G37*
G36*
X2004720Y2085390D02*
G01*
X1999691Y2080412D01*
X1999691Y2001418D01*
X2004720Y1996389D01*
X2084679Y1996389D01*
X2089708Y2001418D01*
X2089708Y2080412D01*
X2084679Y2085390D01*
X2060498Y2085390D01*
X2060498Y2047392D01*
X2027478Y2047392D01*
X2027478Y2085390D01*
G37*
G36*
X408787Y2755087D02*
G01*
X404774Y2751124D01*
X404774Y2701036D01*
X408787Y2697022D01*
X454812Y2697022D01*
X458825Y2701036D01*
X458825Y2751124D01*
X454812Y2755087D01*
G37*
G36*
X408787Y2840177D02*
G01*
X404774Y2836164D01*
X404774Y2786075D01*
X408787Y2782112D01*
X454812Y2782112D01*
X458825Y2786075D01*
X458825Y2836164D01*
X454812Y2840177D01*
G37*
D10*
G01*
X1099997Y1613496D03*
G01*
X1299997Y1613496D03*
G01*
X1499996Y1613496D03*
G01*
X1699996Y1613496D03*
G01*
X1899996Y1613496D03*
D11*
G01*
X2134997Y1053503D03*
G01*
X864996Y1053503D03*
D12*
G01*
X2800095Y2678099D03*
G01*
X2610104Y2678099D03*
G01*
X2705100Y2478100D03*
G01*
X2610104Y3227400D03*
G01*
X2800095Y3227400D03*
G01*
X2705100Y3427399D03*
D13*
G01*
X2590800Y1778000D03*
G01*
X2463800Y1778000D03*
G01*
X2590800Y1905000D03*
G01*
X2463800Y1905000D03*
G01*
X2590800Y2032000D03*
G01*
X2463800Y2032000D03*
D14*
G01*
X419735Y2120900D03*
G01*
X799464Y2120900D03*
D15*
G01*
X599998Y4227652D03*
G01*
X599998Y4100652D03*
G01*
X599998Y3973652D03*
G01*
X599998Y3846652D03*
G01*
X599998Y3719652D03*
G01*
X599998Y3592652D03*
G01*
X599998Y3465652D03*
G01*
X599998Y3338652D03*
G01*
X599998Y3211652D03*
G01*
X599998Y3084652D03*
G01*
X599998Y2957652D03*
G01*
X599998Y2830652D03*
G01*
X599998Y2703652D03*
G01*
X599998Y2576652D03*
D16*
G01*
X928522Y2427147D03*
G01*
X1055522Y2427147D03*
G01*
X1182522Y2427147D03*
G01*
X1309522Y2427147D03*
G01*
X1436522Y2427147D03*
G01*
X1563522Y2427147D03*
G01*
X1690522Y2427147D03*
G01*
X1817522Y2427147D03*
G01*
X1944497Y2427147D03*
G01*
X2071522Y2427147D03*
D15*
G01*
X2399995Y2576652D03*
G01*
X2399995Y2703652D03*
G01*
X2399995Y2830652D03*
G01*
X2399995Y2957652D03*
G01*
X2399995Y3084652D03*
G01*
X2399995Y3211652D03*
G01*
X2399995Y3338652D03*
G01*
X2399995Y3465652D03*
G01*
X2399995Y3592652D03*
G01*
X2399995Y3719652D03*
G01*
X2399995Y3846652D03*
G01*
X2399995Y3973652D03*
G01*
X2399995Y4100652D03*
G01*
X2399995Y4227652D03*
D17*
G01*
X1350010Y3459251D03*
G01*
X1166520Y3459226D03*
G01*
X1533525Y3459226D03*
G01*
X1533525Y3642740D03*
G01*
X1350010Y3642740D03*
G01*
X1166520Y3642740D03*
G01*
X1166520Y3275736D03*
G01*
X1350010Y3275736D03*
G01*
X1533525Y3275736D03*
D18*
G01*
X1415795Y2193594D03*
G01*
X1225804Y2193594D03*
G01*
X1320800Y1946605D03*
G01*
X1898395Y2193594D03*
G01*
X1708404Y2193594D03*
G01*
X1803400Y1946605D03*
D19*
G01*
X649096Y1823694D03*
G01*
X419100Y1823694D03*
G01*
X189103Y1823694D03*
G36*
X239100Y1366700D02*
G01*
X599099Y1366700D01*
X599099Y1132700D01*
X239100Y1132700D01*
G37*
D20*
G01*
X279400Y2777489D03*
G01*
X279400Y2607310D03*
M02*
