G04 Layer: TopSolderMaskLayer*
G04 EasyEDA v6.5.9, 2022-07-29 16:18:05*
G04 6a4c66b5a8f34d0fa7dc8df532b4a6e8,9fc4434aafee4760887af2be40c81ba0,10*
G04 Gerber Generator version 0.2*
G04 Scale: 100 percent, Rotated: No, Reflected: No *
G04 Dimensions in millimeters *
G04 leading zeros omitted , absolute positions ,4 integer and 5 decimal *
%FSLAX45Y45*%
%MOMM*%

%ADD10C,0.9906*%
%ADD11C,2.5781*%
%ADD12C,1.1938*%

%LPD*%
G36*
X1049997Y1473426D02*
G01*
X1048473Y1473680D01*
X1046949Y1474442D01*
X1045933Y1475458D01*
X1045171Y1476982D01*
X1044917Y1478506D01*
X1044955Y1478534D01*
X1044955Y1748536D01*
X1044917Y1748508D01*
X1045171Y1750032D01*
X1045933Y1751556D01*
X1046949Y1752572D01*
X1048473Y1753334D01*
X1049997Y1753588D01*
X1050036Y1753615D01*
X1150112Y1753615D01*
X1149997Y1753588D01*
X1151521Y1753334D01*
X1153045Y1752572D01*
X1154061Y1751556D01*
X1154823Y1750032D01*
X1155077Y1748508D01*
X1155192Y1748536D01*
X1155192Y1478534D01*
X1155077Y1478506D01*
X1154823Y1476982D01*
X1154061Y1475458D01*
X1153045Y1474442D01*
X1151521Y1473680D01*
X1149997Y1473426D01*
X1150112Y1473454D01*
X1050036Y1473454D01*
G37*
G36*
X1249997Y1473426D02*
G01*
X1248473Y1473680D01*
X1246949Y1474442D01*
X1245933Y1475458D01*
X1245171Y1476982D01*
X1244917Y1478506D01*
X1244854Y1478534D01*
X1244854Y1748536D01*
X1244917Y1748508D01*
X1245171Y1750032D01*
X1245933Y1751556D01*
X1246949Y1752572D01*
X1248473Y1753334D01*
X1249997Y1753588D01*
X1249934Y1753615D01*
X1350010Y1753615D01*
X1349997Y1753588D01*
X1351521Y1753334D01*
X1353045Y1752572D01*
X1354061Y1751556D01*
X1354823Y1750032D01*
X1355077Y1748508D01*
X1355089Y1748536D01*
X1355089Y1478534D01*
X1355077Y1478506D01*
X1354823Y1476982D01*
X1354061Y1475458D01*
X1353045Y1474442D01*
X1351521Y1473680D01*
X1349997Y1473426D01*
X1350010Y1473454D01*
X1249934Y1473454D01*
G37*
G36*
X1449997Y1473426D02*
G01*
X1448473Y1473680D01*
X1446949Y1474442D01*
X1445933Y1475458D01*
X1445171Y1476982D01*
X1444917Y1478506D01*
X1445005Y1478534D01*
X1445005Y1748536D01*
X1444917Y1748508D01*
X1445171Y1750032D01*
X1445933Y1751556D01*
X1446949Y1752572D01*
X1448473Y1753334D01*
X1449997Y1753588D01*
X1450086Y1753615D01*
X1549907Y1753615D01*
X1549996Y1753588D01*
X1551520Y1753334D01*
X1553044Y1752572D01*
X1554060Y1751556D01*
X1554822Y1750032D01*
X1555076Y1748508D01*
X1554987Y1748536D01*
X1554987Y1478534D01*
X1555076Y1478506D01*
X1554822Y1476982D01*
X1554060Y1475458D01*
X1553044Y1474442D01*
X1551520Y1473680D01*
X1549996Y1473426D01*
X1549907Y1473454D01*
X1450086Y1473454D01*
G37*
G36*
X1649996Y1473426D02*
G01*
X1648472Y1473680D01*
X1646948Y1474442D01*
X1645932Y1475458D01*
X1645170Y1476982D01*
X1644916Y1478506D01*
X1644904Y1478534D01*
X1644904Y1748536D01*
X1644916Y1748508D01*
X1645170Y1750032D01*
X1645932Y1751556D01*
X1646948Y1752572D01*
X1648472Y1753334D01*
X1649996Y1753588D01*
X1649984Y1753615D01*
X1750060Y1753615D01*
X1749996Y1753588D01*
X1751520Y1753334D01*
X1753044Y1752572D01*
X1754060Y1751556D01*
X1754822Y1750032D01*
X1755076Y1748508D01*
X1755139Y1748536D01*
X1755139Y1478534D01*
X1755076Y1478506D01*
X1754822Y1476982D01*
X1754060Y1475458D01*
X1753044Y1474442D01*
X1751520Y1473680D01*
X1749996Y1473426D01*
X1750060Y1473454D01*
X1649984Y1473454D01*
G37*
G36*
X1849996Y1473426D02*
G01*
X1848472Y1473680D01*
X1846948Y1474442D01*
X1845932Y1475458D01*
X1845170Y1476982D01*
X1844916Y1478506D01*
X1844802Y1478534D01*
X1844802Y1748536D01*
X1844916Y1748508D01*
X1845170Y1750032D01*
X1845932Y1751556D01*
X1846948Y1752572D01*
X1848472Y1753334D01*
X1849996Y1753588D01*
X1849881Y1753615D01*
X1949958Y1753615D01*
X1949996Y1753588D01*
X1951520Y1753334D01*
X1953044Y1752572D01*
X1954060Y1751556D01*
X1954822Y1750032D01*
X1955076Y1748508D01*
X1955038Y1748536D01*
X1955038Y1478534D01*
X1955076Y1478506D01*
X1954822Y1476982D01*
X1954060Y1475458D01*
X1953044Y1474442D01*
X1951520Y1473680D01*
X1949996Y1473426D01*
X1949958Y1473454D01*
X1849881Y1473454D01*
G37*
G36*
X2034999Y858426D02*
G01*
X2033475Y858680D01*
X2031951Y859442D01*
X2030935Y860458D01*
X2030173Y861982D01*
X2029919Y863506D01*
X2029968Y863600D01*
X2029968Y1243584D01*
X2029919Y1243505D01*
X2030173Y1245029D01*
X2030935Y1246553D01*
X2031951Y1247569D01*
X2033475Y1248331D01*
X2034999Y1248585D01*
X2035047Y1248663D01*
X2234945Y1248663D01*
X2234999Y1248585D01*
X2236523Y1248331D01*
X2238047Y1247569D01*
X2239063Y1246553D01*
X2239825Y1245029D01*
X2240079Y1243505D01*
X2240025Y1243584D01*
X2240025Y863600D01*
X2240079Y863506D01*
X2239825Y861982D01*
X2239063Y860458D01*
X2238047Y859442D01*
X2236523Y858680D01*
X2234999Y858426D01*
X2234945Y858520D01*
X2035047Y858520D01*
G37*
G36*
X764999Y858428D02*
G01*
X763475Y858682D01*
X761951Y859444D01*
X760935Y860460D01*
X760173Y861984D01*
X759919Y863508D01*
X759968Y863600D01*
X759968Y1243584D01*
X759919Y1243507D01*
X760173Y1245031D01*
X760935Y1246555D01*
X761951Y1247571D01*
X763475Y1248333D01*
X764999Y1248587D01*
X765047Y1248663D01*
X964945Y1248663D01*
X964999Y1248587D01*
X966523Y1248333D01*
X968047Y1247571D01*
X969063Y1246555D01*
X969825Y1245031D01*
X970079Y1243507D01*
X970026Y1243584D01*
X970026Y863600D01*
X970079Y863508D01*
X969825Y861984D01*
X969063Y860460D01*
X968047Y859444D01*
X966523Y858682D01*
X964999Y858428D01*
X964945Y858520D01*
X765047Y858520D01*
G37*
G36*
X2765094Y2610520D02*
G01*
X2763570Y2610774D01*
X2762046Y2611536D01*
X2761030Y2612552D01*
X2760268Y2614076D01*
X2760014Y2615600D01*
X2759963Y2615692D01*
X2759963Y2740660D01*
X2760014Y2740599D01*
X2760268Y2742123D01*
X2761030Y2743647D01*
X2762046Y2744663D01*
X2763570Y2745425D01*
X2765094Y2745679D01*
X2765043Y2745739D01*
X2835147Y2745739D01*
X2835097Y2745679D01*
X2836621Y2745425D01*
X2838145Y2744663D01*
X2839161Y2743647D01*
X2839923Y2742123D01*
X2840177Y2740599D01*
X2840227Y2740660D01*
X2840227Y2615692D01*
X2840177Y2615600D01*
X2839923Y2614076D01*
X2839161Y2612552D01*
X2838145Y2611536D01*
X2836621Y2610774D01*
X2835097Y2610520D01*
X2835147Y2610612D01*
X2765043Y2610612D01*
G37*
G36*
X2575105Y2610520D02*
G01*
X2573581Y2610774D01*
X2572057Y2611536D01*
X2571041Y2612552D01*
X2570279Y2614076D01*
X2570025Y2615600D01*
X2569972Y2615692D01*
X2569972Y2740660D01*
X2570025Y2740599D01*
X2570279Y2742123D01*
X2571041Y2743647D01*
X2572057Y2744663D01*
X2573581Y2745425D01*
X2575105Y2745679D01*
X2575052Y2745739D01*
X2645156Y2745739D01*
X2645105Y2745679D01*
X2646629Y2745425D01*
X2648153Y2744663D01*
X2649169Y2743647D01*
X2649931Y2742123D01*
X2650185Y2740599D01*
X2650236Y2740660D01*
X2650236Y2615692D01*
X2650185Y2615600D01*
X2649931Y2614076D01*
X2649169Y2612552D01*
X2648153Y2611536D01*
X2646629Y2610774D01*
X2645105Y2610520D01*
X2645156Y2610612D01*
X2575052Y2610612D01*
G37*
G36*
X2670047Y2410460D02*
G01*
X2670101Y2410520D01*
X2668577Y2410774D01*
X2667053Y2411536D01*
X2666037Y2412552D01*
X2665275Y2414076D01*
X2665021Y2415600D01*
X2664968Y2415539D01*
X2664968Y2540507D01*
X2665021Y2540599D01*
X2665275Y2542123D01*
X2666037Y2543647D01*
X2667053Y2544663D01*
X2668577Y2545425D01*
X2670101Y2545679D01*
X2670047Y2545587D01*
X2740152Y2545587D01*
X2740101Y2545679D01*
X2741625Y2545425D01*
X2743149Y2544663D01*
X2744165Y2543647D01*
X2744927Y2542123D01*
X2745181Y2540599D01*
X2745231Y2540507D01*
X2745231Y2415539D01*
X2745181Y2415600D01*
X2744927Y2414076D01*
X2744165Y2412552D01*
X2743149Y2411536D01*
X2741625Y2410774D01*
X2740101Y2410520D01*
X2740152Y2410460D01*
G37*
G36*
X2575052Y3159760D02*
G01*
X2575102Y3159820D01*
X2573578Y3160074D01*
X2572054Y3160836D01*
X2571038Y3161852D01*
X2570276Y3163376D01*
X2570022Y3164900D01*
X2569972Y3164839D01*
X2569972Y3289807D01*
X2570022Y3289899D01*
X2570276Y3291423D01*
X2571038Y3292947D01*
X2572054Y3293963D01*
X2573578Y3294725D01*
X2575102Y3294979D01*
X2575052Y3294887D01*
X2645156Y3294887D01*
X2645105Y3294979D01*
X2646629Y3294725D01*
X2648153Y3293963D01*
X2649169Y3292947D01*
X2649931Y3291423D01*
X2650185Y3289899D01*
X2650236Y3289807D01*
X2650236Y3164839D01*
X2650185Y3164900D01*
X2649931Y3163376D01*
X2649169Y3161852D01*
X2648153Y3160836D01*
X2646629Y3160074D01*
X2645105Y3159820D01*
X2645156Y3159760D01*
G37*
G36*
X2765043Y3159760D02*
G01*
X2765094Y3159820D01*
X2763570Y3160074D01*
X2762046Y3160836D01*
X2761030Y3161852D01*
X2760268Y3163376D01*
X2760014Y3164900D01*
X2759963Y3164839D01*
X2759963Y3289807D01*
X2760014Y3289899D01*
X2760268Y3291423D01*
X2761030Y3292947D01*
X2762046Y3293963D01*
X2763570Y3294725D01*
X2765094Y3294979D01*
X2765043Y3294887D01*
X2835147Y3294887D01*
X2835094Y3294979D01*
X2836618Y3294725D01*
X2838142Y3293963D01*
X2839158Y3292947D01*
X2839920Y3291423D01*
X2840174Y3289899D01*
X2840227Y3289807D01*
X2840227Y3164839D01*
X2840174Y3164900D01*
X2839920Y3163376D01*
X2839158Y3161852D01*
X2838142Y3160836D01*
X2836618Y3160074D01*
X2835094Y3159820D01*
X2835147Y3159760D01*
G37*
G36*
X2670098Y3359820D02*
G01*
X2668574Y3360074D01*
X2667050Y3360836D01*
X2666034Y3361852D01*
X2665272Y3363376D01*
X2665018Y3364900D01*
X2664968Y3364992D01*
X2664968Y3489960D01*
X2665018Y3489899D01*
X2665272Y3491423D01*
X2666034Y3492947D01*
X2667050Y3493963D01*
X2668574Y3494725D01*
X2670098Y3494979D01*
X2670047Y3495039D01*
X2740152Y3495039D01*
X2740098Y3494979D01*
X2741622Y3494725D01*
X2743146Y3493963D01*
X2744162Y3492947D01*
X2744924Y3491423D01*
X2745178Y3489899D01*
X2745231Y3489960D01*
X2745231Y3364992D01*
X2745178Y3364900D01*
X2744924Y3363376D01*
X2744162Y3361852D01*
X2743146Y3360836D01*
X2741622Y3360074D01*
X2740098Y3359820D01*
X2740152Y3359912D01*
X2670047Y3359912D01*
G37*
D10*
G01*
X2590800Y1778000D03*
G01*
X2463800Y1778000D03*
G01*
X2590800Y1905000D03*
G01*
X2463800Y1905000D03*
G01*
X2590800Y2032000D03*
G01*
X2463800Y2032000D03*
D11*
G01*
X2781300Y1651000D03*
G01*
X2273300Y1651000D03*
G01*
X2273300Y1968500D03*
G01*
X2781300Y1968500D03*
D12*
G01*
X2425700Y2159000D03*
G01*
X2628900Y2159000D03*
G01*
X2527300Y1651000D03*
G36*
X324612Y1996947D02*
G01*
X324733Y1997021D01*
X323209Y1997275D01*
X321685Y1998037D01*
X320669Y1999053D01*
X319907Y2000577D01*
X319653Y2002101D01*
X319531Y2002028D01*
X319531Y2239771D01*
X319653Y2239700D01*
X319907Y2241224D01*
X320669Y2242748D01*
X321685Y2243764D01*
X323209Y2244526D01*
X324733Y2244780D01*
X324612Y2244852D01*
X514857Y2244852D01*
X514736Y2244780D01*
X516260Y2244526D01*
X517784Y2243764D01*
X518800Y2242748D01*
X519562Y2241224D01*
X519816Y2239700D01*
X519937Y2239771D01*
X519937Y2002028D01*
X519816Y2002101D01*
X519562Y2000577D01*
X518800Y1999053D01*
X517784Y1998037D01*
X516260Y1997275D01*
X514736Y1997021D01*
X514857Y1996947D01*
G37*
G36*
X704342Y1996947D02*
G01*
X704463Y1997021D01*
X702939Y1997275D01*
X701415Y1998037D01*
X700399Y1999053D01*
X699637Y2000577D01*
X699383Y2002101D01*
X699262Y2002028D01*
X699262Y2239771D01*
X699383Y2239700D01*
X699637Y2241224D01*
X700399Y2242748D01*
X701415Y2243764D01*
X702939Y2244526D01*
X704463Y2244780D01*
X704342Y2244852D01*
X894587Y2244852D01*
X894466Y2244780D01*
X895990Y2244526D01*
X897514Y2243764D01*
X898530Y2242748D01*
X899292Y2241224D01*
X899546Y2239700D01*
X899668Y2239771D01*
X899668Y2002028D01*
X899546Y2002101D01*
X899292Y2000577D01*
X898530Y1999053D01*
X897514Y1998037D01*
X895990Y1997275D01*
X894466Y1997021D01*
X894587Y1996947D01*
G37*
G36*
X180101Y2025319D02*
G01*
X178577Y2025573D01*
X177053Y2026335D01*
X176037Y2027351D01*
X175275Y2028875D01*
X175021Y2030399D01*
X175005Y2030476D01*
X175005Y2084323D01*
X175021Y2084400D01*
X175275Y2085924D01*
X176037Y2087448D01*
X177053Y2088464D01*
X178577Y2089226D01*
X180101Y2089480D01*
X180086Y2089404D01*
X259079Y2089404D01*
X259110Y2089480D01*
X260634Y2089226D01*
X262158Y2088464D01*
X263174Y2087448D01*
X263936Y2085924D01*
X264190Y2084400D01*
X264160Y2084323D01*
X264160Y2030476D01*
X264190Y2030399D01*
X263936Y2028875D01*
X263174Y2027351D01*
X262158Y2026335D01*
X260634Y2025573D01*
X259110Y2025319D01*
X259079Y2025395D01*
X180086Y2025395D01*
G37*
G36*
X71089Y2025319D02*
G01*
X69565Y2025573D01*
X68041Y2026335D01*
X67025Y2027351D01*
X66263Y2028875D01*
X66009Y2030399D01*
X66039Y2030476D01*
X66039Y2084323D01*
X66009Y2084400D01*
X66263Y2085924D01*
X67025Y2087448D01*
X68041Y2088464D01*
X69565Y2089226D01*
X71089Y2089480D01*
X71120Y2089404D01*
X150113Y2089404D01*
X150098Y2089480D01*
X151622Y2089226D01*
X153146Y2088464D01*
X154162Y2087448D01*
X154924Y2085924D01*
X155178Y2084400D01*
X155194Y2084323D01*
X155194Y2030476D01*
X155178Y2030399D01*
X154924Y2028875D01*
X154162Y2027351D01*
X153146Y2026335D01*
X151622Y2025573D01*
X150098Y2025319D01*
X150113Y2025395D01*
X71120Y2025395D01*
G37*
G36*
X243601Y3790619D02*
G01*
X242077Y3790873D01*
X240553Y3791635D01*
X239537Y3792651D01*
X238775Y3794175D01*
X238521Y3795699D01*
X238505Y3795776D01*
X238505Y3849623D01*
X238521Y3849700D01*
X238775Y3851224D01*
X239537Y3852748D01*
X240553Y3853764D01*
X242077Y3854526D01*
X243601Y3854780D01*
X243586Y3854704D01*
X322579Y3854704D01*
X322610Y3854780D01*
X324134Y3854526D01*
X325658Y3853764D01*
X326674Y3852748D01*
X327436Y3851224D01*
X327690Y3849700D01*
X327660Y3849623D01*
X327660Y3795776D01*
X327690Y3795699D01*
X327436Y3794175D01*
X326674Y3792651D01*
X325658Y3791635D01*
X324134Y3790873D01*
X322610Y3790619D01*
X322579Y3790695D01*
X243586Y3790695D01*
G37*
G36*
X134589Y3790619D02*
G01*
X133065Y3790873D01*
X131541Y3791635D01*
X130525Y3792651D01*
X129763Y3794175D01*
X129509Y3795699D01*
X129539Y3795776D01*
X129539Y3849623D01*
X129509Y3849700D01*
X129763Y3851224D01*
X130525Y3852748D01*
X131541Y3853764D01*
X133065Y3854526D01*
X134589Y3854780D01*
X134620Y3854704D01*
X213613Y3854704D01*
X213598Y3854780D01*
X215122Y3854526D01*
X216646Y3853764D01*
X217662Y3852748D01*
X218424Y3851224D01*
X218678Y3849700D01*
X218694Y3849623D01*
X218694Y3795776D01*
X218678Y3795699D01*
X218424Y3794175D01*
X217662Y3792651D01*
X216646Y3791635D01*
X215122Y3790873D01*
X213598Y3790619D01*
X213613Y3790695D01*
X134620Y3790695D01*
G37*
G36*
X495045Y4174997D02*
G01*
X494992Y4175076D01*
X493468Y4175330D01*
X491944Y4176092D01*
X490928Y4177108D01*
X490166Y4178632D01*
X489912Y4180156D01*
X489965Y4180078D01*
X489965Y4275073D01*
X489912Y4275157D01*
X490166Y4276681D01*
X490928Y4278205D01*
X491944Y4279221D01*
X493468Y4279983D01*
X494992Y4280237D01*
X495045Y4280154D01*
X705104Y4280154D01*
X704992Y4280237D01*
X706516Y4279983D01*
X708040Y4279221D01*
X709056Y4278205D01*
X709818Y4276681D01*
X710072Y4275157D01*
X710184Y4275073D01*
X710184Y4180078D01*
X710072Y4180156D01*
X709818Y4178632D01*
X709056Y4177108D01*
X708040Y4176092D01*
X706516Y4175330D01*
X704992Y4175076D01*
X705104Y4174997D01*
G37*
G36*
X495045Y4047997D02*
G01*
X494992Y4048076D01*
X493468Y4048330D01*
X491944Y4049092D01*
X490928Y4050108D01*
X490166Y4051632D01*
X489912Y4053156D01*
X489965Y4053078D01*
X489965Y4148073D01*
X489912Y4148157D01*
X490166Y4149681D01*
X490928Y4151205D01*
X491944Y4152221D01*
X493468Y4152983D01*
X494992Y4153237D01*
X495045Y4153154D01*
X705104Y4153154D01*
X704992Y4153237D01*
X706516Y4152983D01*
X708040Y4152221D01*
X709056Y4151205D01*
X709818Y4149681D01*
X710072Y4148157D01*
X710184Y4148073D01*
X710184Y4053078D01*
X710072Y4053156D01*
X709818Y4051632D01*
X709056Y4050108D01*
X708040Y4049092D01*
X706516Y4048330D01*
X704992Y4048076D01*
X705104Y4047997D01*
G37*
G36*
X495045Y3920997D02*
G01*
X494992Y3921076D01*
X493468Y3921330D01*
X491944Y3922092D01*
X490928Y3923108D01*
X490166Y3924632D01*
X489912Y3926156D01*
X489965Y3926078D01*
X489965Y4021073D01*
X489912Y4021157D01*
X490166Y4022681D01*
X490928Y4024205D01*
X491944Y4025221D01*
X493468Y4025983D01*
X494992Y4026237D01*
X495045Y4026154D01*
X705104Y4026154D01*
X704992Y4026237D01*
X706516Y4025983D01*
X708040Y4025221D01*
X709056Y4024205D01*
X709818Y4022681D01*
X710072Y4021157D01*
X710184Y4021073D01*
X710184Y3926078D01*
X710072Y3926156D01*
X709818Y3924632D01*
X709056Y3923108D01*
X708040Y3922092D01*
X706516Y3921330D01*
X704992Y3921076D01*
X705104Y3920997D01*
G37*
G36*
X495045Y3793997D02*
G01*
X494992Y3794076D01*
X493468Y3794330D01*
X491944Y3795092D01*
X490928Y3796108D01*
X490166Y3797632D01*
X489912Y3799156D01*
X489965Y3799078D01*
X489965Y3894073D01*
X489912Y3894157D01*
X490166Y3895681D01*
X490928Y3897205D01*
X491944Y3898221D01*
X493468Y3898983D01*
X494992Y3899237D01*
X495045Y3899154D01*
X705104Y3899154D01*
X704992Y3899237D01*
X706516Y3898983D01*
X708040Y3898221D01*
X709056Y3897205D01*
X709818Y3895681D01*
X710072Y3894157D01*
X710184Y3894073D01*
X710184Y3799078D01*
X710072Y3799156D01*
X709818Y3797632D01*
X709056Y3796108D01*
X708040Y3795092D01*
X706516Y3794330D01*
X704992Y3794076D01*
X705104Y3793997D01*
G37*
G36*
X495045Y3666997D02*
G01*
X494992Y3667076D01*
X493468Y3667330D01*
X491944Y3668092D01*
X490928Y3669108D01*
X490166Y3670632D01*
X489912Y3672156D01*
X489965Y3672078D01*
X489965Y3767073D01*
X489912Y3767157D01*
X490166Y3768681D01*
X490928Y3770205D01*
X491944Y3771221D01*
X493468Y3771983D01*
X494992Y3772237D01*
X495045Y3772154D01*
X705104Y3772154D01*
X704992Y3772237D01*
X706516Y3771983D01*
X708040Y3771221D01*
X709056Y3770205D01*
X709818Y3768681D01*
X710072Y3767157D01*
X710184Y3767073D01*
X710184Y3672078D01*
X710072Y3672156D01*
X709818Y3670632D01*
X709056Y3669108D01*
X708040Y3668092D01*
X706516Y3667330D01*
X704992Y3667076D01*
X705104Y3666997D01*
G37*
G36*
X495045Y3539997D02*
G01*
X494992Y3540076D01*
X493468Y3540330D01*
X491944Y3541092D01*
X490928Y3542108D01*
X490166Y3543632D01*
X489912Y3545156D01*
X489965Y3545078D01*
X489965Y3640073D01*
X489912Y3640157D01*
X490166Y3641681D01*
X490928Y3643205D01*
X491944Y3644221D01*
X493468Y3644983D01*
X494992Y3645237D01*
X495045Y3645154D01*
X705104Y3645154D01*
X704992Y3645237D01*
X706516Y3644983D01*
X708040Y3644221D01*
X709056Y3643205D01*
X709818Y3641681D01*
X710072Y3640157D01*
X710184Y3640073D01*
X710184Y3545078D01*
X710072Y3545156D01*
X709818Y3543632D01*
X709056Y3542108D01*
X708040Y3541092D01*
X706516Y3540330D01*
X704992Y3540076D01*
X705104Y3539997D01*
G37*
G36*
X495045Y3412997D02*
G01*
X494992Y3413076D01*
X493468Y3413330D01*
X491944Y3414092D01*
X490928Y3415108D01*
X490166Y3416632D01*
X489912Y3418156D01*
X489965Y3418078D01*
X489965Y3513073D01*
X489912Y3513157D01*
X490166Y3514681D01*
X490928Y3516205D01*
X491944Y3517221D01*
X493468Y3517983D01*
X494992Y3518237D01*
X495045Y3518154D01*
X705104Y3518154D01*
X704992Y3518237D01*
X706516Y3517983D01*
X708040Y3517221D01*
X709056Y3516205D01*
X709818Y3514681D01*
X710072Y3513157D01*
X710184Y3513073D01*
X710184Y3418078D01*
X710072Y3418156D01*
X709818Y3416632D01*
X709056Y3415108D01*
X708040Y3414092D01*
X706516Y3413330D01*
X704992Y3413076D01*
X705104Y3412997D01*
G37*
G36*
X495045Y3285997D02*
G01*
X494992Y3286076D01*
X493468Y3286330D01*
X491944Y3287092D01*
X490928Y3288108D01*
X490166Y3289632D01*
X489912Y3291156D01*
X489965Y3291078D01*
X489965Y3386073D01*
X489912Y3386157D01*
X490166Y3387681D01*
X490928Y3389205D01*
X491944Y3390221D01*
X493468Y3390983D01*
X494992Y3391237D01*
X495045Y3391154D01*
X705104Y3391154D01*
X704992Y3391237D01*
X706516Y3390983D01*
X708040Y3390221D01*
X709056Y3389205D01*
X709818Y3387681D01*
X710072Y3386157D01*
X710184Y3386073D01*
X710184Y3291078D01*
X710072Y3291156D01*
X709818Y3289632D01*
X709056Y3288108D01*
X708040Y3287092D01*
X706516Y3286330D01*
X704992Y3286076D01*
X705104Y3285997D01*
G37*
G36*
X495045Y3158997D02*
G01*
X494992Y3159076D01*
X493468Y3159330D01*
X491944Y3160092D01*
X490928Y3161108D01*
X490166Y3162632D01*
X489912Y3164156D01*
X489965Y3164078D01*
X489965Y3259073D01*
X489912Y3259157D01*
X490166Y3260681D01*
X490928Y3262205D01*
X491944Y3263221D01*
X493468Y3263983D01*
X494992Y3264237D01*
X495045Y3264154D01*
X705104Y3264154D01*
X704992Y3264237D01*
X706516Y3263983D01*
X708040Y3263221D01*
X709056Y3262205D01*
X709818Y3260681D01*
X710072Y3259157D01*
X710184Y3259073D01*
X710184Y3164078D01*
X710072Y3164156D01*
X709818Y3162632D01*
X709056Y3161108D01*
X708040Y3160092D01*
X706516Y3159330D01*
X704992Y3159076D01*
X705104Y3158997D01*
G37*
G36*
X495045Y3031997D02*
G01*
X494992Y3032076D01*
X493468Y3032330D01*
X491944Y3033092D01*
X490928Y3034108D01*
X490166Y3035632D01*
X489912Y3037156D01*
X489965Y3037078D01*
X489965Y3132073D01*
X489912Y3132157D01*
X490166Y3133681D01*
X490928Y3135205D01*
X491944Y3136221D01*
X493468Y3136983D01*
X494992Y3137237D01*
X495045Y3137154D01*
X705104Y3137154D01*
X704992Y3137237D01*
X706516Y3136983D01*
X708040Y3136221D01*
X709056Y3135205D01*
X709818Y3133681D01*
X710072Y3132157D01*
X710184Y3132073D01*
X710184Y3037078D01*
X710072Y3037156D01*
X709818Y3035632D01*
X709056Y3034108D01*
X708040Y3033092D01*
X706516Y3032330D01*
X704992Y3032076D01*
X705104Y3031997D01*
G37*
G36*
X495045Y2904997D02*
G01*
X494992Y2905076D01*
X493468Y2905330D01*
X491944Y2906092D01*
X490928Y2907108D01*
X490166Y2908632D01*
X489912Y2910156D01*
X489965Y2910078D01*
X489965Y3005073D01*
X489912Y3005157D01*
X490166Y3006681D01*
X490928Y3008205D01*
X491944Y3009221D01*
X493468Y3009983D01*
X494992Y3010237D01*
X495045Y3010154D01*
X705104Y3010154D01*
X704992Y3010237D01*
X706516Y3009983D01*
X708040Y3009221D01*
X709056Y3008205D01*
X709818Y3006681D01*
X710072Y3005157D01*
X710184Y3005073D01*
X710184Y2910078D01*
X710072Y2910156D01*
X709818Y2908632D01*
X709056Y2907108D01*
X708040Y2906092D01*
X706516Y2905330D01*
X704992Y2905076D01*
X705104Y2904997D01*
G37*
G36*
X495045Y2777997D02*
G01*
X494992Y2778076D01*
X493468Y2778330D01*
X491944Y2779092D01*
X490928Y2780108D01*
X490166Y2781632D01*
X489912Y2783156D01*
X489965Y2783078D01*
X489965Y2878073D01*
X489912Y2878157D01*
X490166Y2879681D01*
X490928Y2881205D01*
X491944Y2882221D01*
X493468Y2882983D01*
X494992Y2883237D01*
X495045Y2883154D01*
X705104Y2883154D01*
X704992Y2883237D01*
X706516Y2882983D01*
X708040Y2882221D01*
X709056Y2881205D01*
X709818Y2879681D01*
X710072Y2878157D01*
X710184Y2878073D01*
X710184Y2783078D01*
X710072Y2783156D01*
X709818Y2781632D01*
X709056Y2780108D01*
X708040Y2779092D01*
X706516Y2778330D01*
X704992Y2778076D01*
X705104Y2777997D01*
G37*
G36*
X495045Y2650997D02*
G01*
X494992Y2651076D01*
X493468Y2651330D01*
X491944Y2652092D01*
X490928Y2653108D01*
X490166Y2654632D01*
X489912Y2656156D01*
X489965Y2656078D01*
X489965Y2751073D01*
X489912Y2751157D01*
X490166Y2752681D01*
X490928Y2754205D01*
X491944Y2755221D01*
X493468Y2755983D01*
X494992Y2756237D01*
X495045Y2756154D01*
X705104Y2756154D01*
X704992Y2756237D01*
X706516Y2755983D01*
X708040Y2755221D01*
X709056Y2754205D01*
X709818Y2752681D01*
X710072Y2751157D01*
X710184Y2751073D01*
X710184Y2656078D01*
X710072Y2656156D01*
X709818Y2654632D01*
X709056Y2653108D01*
X708040Y2652092D01*
X706516Y2651330D01*
X704992Y2651076D01*
X705104Y2650997D01*
G37*
G36*
X495045Y2523997D02*
G01*
X494992Y2524076D01*
X493468Y2524330D01*
X491944Y2525092D01*
X490928Y2526108D01*
X490166Y2527632D01*
X489912Y2529156D01*
X489965Y2529078D01*
X489965Y2624073D01*
X489912Y2624157D01*
X490166Y2625681D01*
X490928Y2627205D01*
X491944Y2628221D01*
X493468Y2628983D01*
X494992Y2629237D01*
X495045Y2629154D01*
X705104Y2629154D01*
X704992Y2629237D01*
X706516Y2628983D01*
X708040Y2628221D01*
X709056Y2627205D01*
X709818Y2625681D01*
X710072Y2624157D01*
X710184Y2624073D01*
X710184Y2529078D01*
X710072Y2529156D01*
X709818Y2527632D01*
X709056Y2526108D01*
X708040Y2525092D01*
X706516Y2524330D01*
X704992Y2524076D01*
X705104Y2523997D01*
G37*
G36*
X881126Y2316987D02*
G01*
X881009Y2317079D01*
X879485Y2317333D01*
X877961Y2318095D01*
X876945Y2319111D01*
X876183Y2320635D01*
X875929Y2322159D01*
X876045Y2322068D01*
X876045Y2532126D01*
X875929Y2532159D01*
X876183Y2533683D01*
X876945Y2535207D01*
X877961Y2536223D01*
X879485Y2536985D01*
X881009Y2537239D01*
X881126Y2537205D01*
X976121Y2537205D01*
X976010Y2537239D01*
X977534Y2536985D01*
X979058Y2536223D01*
X980074Y2535207D01*
X980836Y2533683D01*
X981090Y2532159D01*
X981202Y2532126D01*
X981202Y2322068D01*
X981090Y2322159D01*
X980836Y2320635D01*
X980074Y2319111D01*
X979058Y2318095D01*
X977534Y2317333D01*
X976010Y2317079D01*
X976121Y2316987D01*
G37*
G36*
X1008126Y2316987D02*
G01*
X1008009Y2317079D01*
X1006485Y2317333D01*
X1004961Y2318095D01*
X1003945Y2319111D01*
X1003183Y2320635D01*
X1002929Y2322159D01*
X1003045Y2322068D01*
X1003045Y2532126D01*
X1002929Y2532159D01*
X1003183Y2533683D01*
X1003945Y2535207D01*
X1004961Y2536223D01*
X1006485Y2536985D01*
X1008009Y2537239D01*
X1008126Y2537205D01*
X1103121Y2537205D01*
X1103010Y2537239D01*
X1104534Y2536985D01*
X1106058Y2536223D01*
X1107074Y2535207D01*
X1107836Y2533683D01*
X1108090Y2532159D01*
X1108202Y2532126D01*
X1108202Y2322068D01*
X1108090Y2322159D01*
X1107836Y2320635D01*
X1107074Y2319111D01*
X1106058Y2318095D01*
X1104534Y2317333D01*
X1103010Y2317079D01*
X1103121Y2316987D01*
G37*
G36*
X1135126Y2316987D02*
G01*
X1135009Y2317079D01*
X1133485Y2317333D01*
X1131961Y2318095D01*
X1130945Y2319111D01*
X1130183Y2320635D01*
X1129929Y2322159D01*
X1130045Y2322068D01*
X1130045Y2532126D01*
X1129929Y2532159D01*
X1130183Y2533683D01*
X1130945Y2535207D01*
X1131961Y2536223D01*
X1133485Y2536985D01*
X1135009Y2537239D01*
X1135126Y2537205D01*
X1230121Y2537205D01*
X1230010Y2537239D01*
X1231534Y2536985D01*
X1233058Y2536223D01*
X1234074Y2535207D01*
X1234836Y2533683D01*
X1235090Y2532159D01*
X1235202Y2532126D01*
X1235202Y2322068D01*
X1235090Y2322159D01*
X1234836Y2320635D01*
X1234074Y2319111D01*
X1233058Y2318095D01*
X1231534Y2317333D01*
X1230010Y2317079D01*
X1230121Y2316987D01*
G37*
G36*
X1262126Y2316987D02*
G01*
X1262009Y2317079D01*
X1260485Y2317333D01*
X1258961Y2318095D01*
X1257945Y2319111D01*
X1257183Y2320635D01*
X1256929Y2322159D01*
X1257045Y2322068D01*
X1257045Y2532126D01*
X1256929Y2532159D01*
X1257183Y2533683D01*
X1257945Y2535207D01*
X1258961Y2536223D01*
X1260485Y2536985D01*
X1262009Y2537239D01*
X1262126Y2537205D01*
X1357121Y2537205D01*
X1357010Y2537239D01*
X1358534Y2536985D01*
X1360058Y2536223D01*
X1361074Y2535207D01*
X1361836Y2533683D01*
X1362090Y2532159D01*
X1362202Y2532126D01*
X1362202Y2322068D01*
X1362090Y2322159D01*
X1361836Y2320635D01*
X1361074Y2319111D01*
X1360058Y2318095D01*
X1358534Y2317333D01*
X1357010Y2317079D01*
X1357121Y2316987D01*
G37*
G36*
X1389126Y2316987D02*
G01*
X1389009Y2317079D01*
X1387485Y2317333D01*
X1385961Y2318095D01*
X1384945Y2319111D01*
X1384183Y2320635D01*
X1383929Y2322159D01*
X1384045Y2322068D01*
X1384045Y2532126D01*
X1383929Y2532159D01*
X1384183Y2533683D01*
X1384945Y2535207D01*
X1385961Y2536223D01*
X1387485Y2536985D01*
X1389009Y2537239D01*
X1389126Y2537205D01*
X1484121Y2537205D01*
X1484010Y2537239D01*
X1485534Y2536985D01*
X1487058Y2536223D01*
X1488074Y2535207D01*
X1488836Y2533683D01*
X1489090Y2532159D01*
X1489202Y2532126D01*
X1489202Y2322068D01*
X1489090Y2322159D01*
X1488836Y2320635D01*
X1488074Y2319111D01*
X1487058Y2318095D01*
X1485534Y2317333D01*
X1484010Y2317079D01*
X1484121Y2316987D01*
G37*
G36*
X1516126Y2316987D02*
G01*
X1516009Y2317079D01*
X1514485Y2317333D01*
X1512961Y2318095D01*
X1511945Y2319111D01*
X1511183Y2320635D01*
X1510929Y2322159D01*
X1511045Y2322068D01*
X1511045Y2532126D01*
X1510929Y2532159D01*
X1511183Y2533683D01*
X1511945Y2535207D01*
X1512961Y2536223D01*
X1514485Y2536985D01*
X1516009Y2537239D01*
X1516126Y2537205D01*
X1611121Y2537205D01*
X1611010Y2537239D01*
X1612534Y2536985D01*
X1614058Y2536223D01*
X1615074Y2535207D01*
X1615836Y2533683D01*
X1616090Y2532159D01*
X1616202Y2532126D01*
X1616202Y2322068D01*
X1616090Y2322159D01*
X1615836Y2320635D01*
X1615074Y2319111D01*
X1614058Y2318095D01*
X1612534Y2317333D01*
X1611010Y2317079D01*
X1611121Y2316987D01*
G37*
G36*
X1643126Y2316987D02*
G01*
X1643009Y2317079D01*
X1641485Y2317333D01*
X1639961Y2318095D01*
X1638945Y2319111D01*
X1638183Y2320635D01*
X1637929Y2322159D01*
X1638045Y2322068D01*
X1638045Y2532126D01*
X1637929Y2532159D01*
X1638183Y2533683D01*
X1638945Y2535207D01*
X1639961Y2536223D01*
X1641485Y2536985D01*
X1643009Y2537239D01*
X1643126Y2537205D01*
X1738121Y2537205D01*
X1738010Y2537239D01*
X1739534Y2536985D01*
X1741058Y2536223D01*
X1742074Y2535207D01*
X1742836Y2533683D01*
X1743090Y2532159D01*
X1743202Y2532126D01*
X1743202Y2322068D01*
X1743090Y2322159D01*
X1742836Y2320635D01*
X1742074Y2319111D01*
X1741058Y2318095D01*
X1739534Y2317333D01*
X1738010Y2317079D01*
X1738121Y2316987D01*
G37*
G36*
X1770126Y2316987D02*
G01*
X1770009Y2317079D01*
X1768485Y2317333D01*
X1766961Y2318095D01*
X1765945Y2319111D01*
X1765183Y2320635D01*
X1764929Y2322159D01*
X1765045Y2322068D01*
X1765045Y2532126D01*
X1764929Y2532159D01*
X1765183Y2533683D01*
X1765945Y2535207D01*
X1766961Y2536223D01*
X1768485Y2536985D01*
X1770009Y2537239D01*
X1770126Y2537205D01*
X1865121Y2537205D01*
X1865010Y2537239D01*
X1866534Y2536985D01*
X1868058Y2536223D01*
X1869074Y2535207D01*
X1869836Y2533683D01*
X1870090Y2532159D01*
X1870202Y2532126D01*
X1870202Y2322068D01*
X1870090Y2322159D01*
X1869836Y2320635D01*
X1869074Y2319111D01*
X1868058Y2318095D01*
X1866534Y2317333D01*
X1865010Y2317079D01*
X1865121Y2316987D01*
G37*
G36*
X1897126Y2316987D02*
G01*
X1897009Y2317079D01*
X1895485Y2317333D01*
X1893961Y2318095D01*
X1892945Y2319111D01*
X1892183Y2320635D01*
X1891929Y2322159D01*
X1892045Y2322068D01*
X1892045Y2532126D01*
X1891929Y2532159D01*
X1892183Y2533683D01*
X1892945Y2535207D01*
X1893961Y2536223D01*
X1895485Y2536985D01*
X1897009Y2537239D01*
X1897126Y2537205D01*
X1992122Y2537205D01*
X1992010Y2537239D01*
X1993534Y2536985D01*
X1995058Y2536223D01*
X1996074Y2535207D01*
X1996836Y2533683D01*
X1997090Y2532159D01*
X1997202Y2532126D01*
X1997202Y2322068D01*
X1997090Y2322159D01*
X1996836Y2320635D01*
X1996074Y2319111D01*
X1995058Y2318095D01*
X1993534Y2317333D01*
X1992010Y2317079D01*
X1992122Y2316987D01*
G37*
G36*
X2024125Y2316987D02*
G01*
X2024009Y2317079D01*
X2022485Y2317333D01*
X2020961Y2318095D01*
X2019945Y2319111D01*
X2019183Y2320635D01*
X2018929Y2322159D01*
X2019045Y2322068D01*
X2019045Y2532126D01*
X2018929Y2532159D01*
X2019183Y2533683D01*
X2019945Y2535207D01*
X2020961Y2536223D01*
X2022485Y2536985D01*
X2024009Y2537239D01*
X2024125Y2537205D01*
X2119122Y2537205D01*
X2119010Y2537239D01*
X2120534Y2536985D01*
X2122058Y2536223D01*
X2123074Y2535207D01*
X2123836Y2533683D01*
X2124090Y2532159D01*
X2124202Y2532126D01*
X2124202Y2322068D01*
X2124090Y2322159D01*
X2123836Y2320635D01*
X2123074Y2319111D01*
X2122058Y2318095D01*
X2120534Y2317333D01*
X2119010Y2317079D01*
X2119122Y2316987D01*
G37*
G36*
X2294890Y2523997D02*
G01*
X2295001Y2524076D01*
X2293477Y2524330D01*
X2291953Y2525092D01*
X2290937Y2526108D01*
X2290175Y2527632D01*
X2289921Y2529156D01*
X2289809Y2529078D01*
X2289809Y2624073D01*
X2289921Y2624157D01*
X2290175Y2625681D01*
X2290937Y2627205D01*
X2291953Y2628221D01*
X2293477Y2628983D01*
X2295001Y2629237D01*
X2294890Y2629154D01*
X2504947Y2629154D01*
X2505003Y2629237D01*
X2506527Y2628983D01*
X2508051Y2628221D01*
X2509067Y2627205D01*
X2509829Y2625681D01*
X2510083Y2624157D01*
X2510027Y2624073D01*
X2510027Y2529078D01*
X2510083Y2529156D01*
X2509829Y2527632D01*
X2509067Y2526108D01*
X2508051Y2525092D01*
X2506527Y2524330D01*
X2505003Y2524076D01*
X2504947Y2523997D01*
G37*
G36*
X2294890Y2650997D02*
G01*
X2295001Y2651076D01*
X2293477Y2651330D01*
X2291953Y2652092D01*
X2290937Y2653108D01*
X2290175Y2654632D01*
X2289921Y2656156D01*
X2289809Y2656078D01*
X2289809Y2751073D01*
X2289921Y2751157D01*
X2290175Y2752681D01*
X2290937Y2754205D01*
X2291953Y2755221D01*
X2293477Y2755983D01*
X2295001Y2756237D01*
X2294890Y2756154D01*
X2504947Y2756154D01*
X2505003Y2756237D01*
X2506527Y2755983D01*
X2508051Y2755221D01*
X2509067Y2754205D01*
X2509829Y2752681D01*
X2510083Y2751157D01*
X2510027Y2751073D01*
X2510027Y2656078D01*
X2510083Y2656156D01*
X2509829Y2654632D01*
X2509067Y2653108D01*
X2508051Y2652092D01*
X2506527Y2651330D01*
X2505003Y2651076D01*
X2504947Y2650997D01*
G37*
G36*
X2294890Y2777997D02*
G01*
X2295001Y2778076D01*
X2293477Y2778330D01*
X2291953Y2779092D01*
X2290937Y2780108D01*
X2290175Y2781632D01*
X2289921Y2783156D01*
X2289809Y2783078D01*
X2289809Y2878073D01*
X2289921Y2878157D01*
X2290175Y2879681D01*
X2290937Y2881205D01*
X2291953Y2882221D01*
X2293477Y2882983D01*
X2295001Y2883237D01*
X2294890Y2883154D01*
X2504947Y2883154D01*
X2505003Y2883237D01*
X2506527Y2882983D01*
X2508051Y2882221D01*
X2509067Y2881205D01*
X2509829Y2879681D01*
X2510083Y2878157D01*
X2510027Y2878073D01*
X2510027Y2783078D01*
X2510083Y2783156D01*
X2509829Y2781632D01*
X2509067Y2780108D01*
X2508051Y2779092D01*
X2506527Y2778330D01*
X2505003Y2778076D01*
X2504947Y2777997D01*
G37*
G36*
X2294890Y2904997D02*
G01*
X2295001Y2905076D01*
X2293477Y2905330D01*
X2291953Y2906092D01*
X2290937Y2907108D01*
X2290175Y2908632D01*
X2289921Y2910156D01*
X2289809Y2910078D01*
X2289809Y3005073D01*
X2289921Y3005157D01*
X2290175Y3006681D01*
X2290937Y3008205D01*
X2291953Y3009221D01*
X2293477Y3009983D01*
X2295001Y3010237D01*
X2294890Y3010154D01*
X2504947Y3010154D01*
X2505003Y3010237D01*
X2506527Y3009983D01*
X2508051Y3009221D01*
X2509067Y3008205D01*
X2509829Y3006681D01*
X2510083Y3005157D01*
X2510027Y3005073D01*
X2510027Y2910078D01*
X2510083Y2910156D01*
X2509829Y2908632D01*
X2509067Y2907108D01*
X2508051Y2906092D01*
X2506527Y2905330D01*
X2505003Y2905076D01*
X2504947Y2904997D01*
G37*
G36*
X2294890Y3031997D02*
G01*
X2295001Y3032076D01*
X2293477Y3032330D01*
X2291953Y3033092D01*
X2290937Y3034108D01*
X2290175Y3035632D01*
X2289921Y3037156D01*
X2289809Y3037078D01*
X2289809Y3132073D01*
X2289921Y3132157D01*
X2290175Y3133681D01*
X2290937Y3135205D01*
X2291953Y3136221D01*
X2293477Y3136983D01*
X2295001Y3137237D01*
X2294890Y3137154D01*
X2504947Y3137154D01*
X2505003Y3137237D01*
X2506527Y3136983D01*
X2508051Y3136221D01*
X2509067Y3135205D01*
X2509829Y3133681D01*
X2510083Y3132157D01*
X2510027Y3132073D01*
X2510027Y3037078D01*
X2510083Y3037156D01*
X2509829Y3035632D01*
X2509067Y3034108D01*
X2508051Y3033092D01*
X2506527Y3032330D01*
X2505003Y3032076D01*
X2504947Y3031997D01*
G37*
G36*
X2294890Y3158997D02*
G01*
X2295001Y3159076D01*
X2293477Y3159330D01*
X2291953Y3160092D01*
X2290937Y3161108D01*
X2290175Y3162632D01*
X2289921Y3164156D01*
X2289809Y3164078D01*
X2289809Y3259073D01*
X2289921Y3259157D01*
X2290175Y3260681D01*
X2290937Y3262205D01*
X2291953Y3263221D01*
X2293477Y3263983D01*
X2295001Y3264237D01*
X2294890Y3264154D01*
X2504947Y3264154D01*
X2505003Y3264237D01*
X2506527Y3263983D01*
X2508051Y3263221D01*
X2509067Y3262205D01*
X2509829Y3260681D01*
X2510083Y3259157D01*
X2510027Y3259073D01*
X2510027Y3164078D01*
X2510083Y3164156D01*
X2509829Y3162632D01*
X2509067Y3161108D01*
X2508051Y3160092D01*
X2506527Y3159330D01*
X2505003Y3159076D01*
X2504947Y3158997D01*
G37*
G36*
X2294890Y3285997D02*
G01*
X2295001Y3286076D01*
X2293477Y3286330D01*
X2291953Y3287092D01*
X2290937Y3288108D01*
X2290175Y3289632D01*
X2289921Y3291156D01*
X2289809Y3291078D01*
X2289809Y3386073D01*
X2289921Y3386157D01*
X2290175Y3387681D01*
X2290937Y3389205D01*
X2291953Y3390221D01*
X2293477Y3390983D01*
X2295001Y3391237D01*
X2294890Y3391154D01*
X2504947Y3391154D01*
X2505003Y3391237D01*
X2506527Y3390983D01*
X2508051Y3390221D01*
X2509067Y3389205D01*
X2509829Y3387681D01*
X2510083Y3386157D01*
X2510027Y3386073D01*
X2510027Y3291078D01*
X2510083Y3291156D01*
X2509829Y3289632D01*
X2509067Y3288108D01*
X2508051Y3287092D01*
X2506527Y3286330D01*
X2505003Y3286076D01*
X2504947Y3285997D01*
G37*
G36*
X2294890Y3412997D02*
G01*
X2295001Y3413076D01*
X2293477Y3413330D01*
X2291953Y3414092D01*
X2290937Y3415108D01*
X2290175Y3416632D01*
X2289921Y3418156D01*
X2289809Y3418078D01*
X2289809Y3513073D01*
X2289921Y3513157D01*
X2290175Y3514681D01*
X2290937Y3516205D01*
X2291953Y3517221D01*
X2293477Y3517983D01*
X2295001Y3518237D01*
X2294890Y3518154D01*
X2504947Y3518154D01*
X2505003Y3518237D01*
X2506527Y3517983D01*
X2508051Y3517221D01*
X2509067Y3516205D01*
X2509829Y3514681D01*
X2510083Y3513157D01*
X2510027Y3513073D01*
X2510027Y3418078D01*
X2510083Y3418156D01*
X2509829Y3416632D01*
X2509067Y3415108D01*
X2508051Y3414092D01*
X2506527Y3413330D01*
X2505003Y3413076D01*
X2504947Y3412997D01*
G37*
G36*
X2294890Y3539997D02*
G01*
X2295001Y3540076D01*
X2293477Y3540330D01*
X2291953Y3541092D01*
X2290937Y3542108D01*
X2290175Y3543632D01*
X2289921Y3545156D01*
X2289809Y3545078D01*
X2289809Y3640073D01*
X2289921Y3640157D01*
X2290175Y3641681D01*
X2290937Y3643205D01*
X2291953Y3644221D01*
X2293477Y3644983D01*
X2295001Y3645237D01*
X2294890Y3645154D01*
X2504947Y3645154D01*
X2505003Y3645237D01*
X2506527Y3644983D01*
X2508051Y3644221D01*
X2509067Y3643205D01*
X2509829Y3641681D01*
X2510083Y3640157D01*
X2510027Y3640073D01*
X2510027Y3545078D01*
X2510083Y3545156D01*
X2509829Y3543632D01*
X2509067Y3542108D01*
X2508051Y3541092D01*
X2506527Y3540330D01*
X2505003Y3540076D01*
X2504947Y3539997D01*
G37*
G36*
X2294890Y3666997D02*
G01*
X2295001Y3667076D01*
X2293477Y3667330D01*
X2291953Y3668092D01*
X2290937Y3669108D01*
X2290175Y3670632D01*
X2289921Y3672156D01*
X2289809Y3672078D01*
X2289809Y3767073D01*
X2289921Y3767157D01*
X2290175Y3768681D01*
X2290937Y3770205D01*
X2291953Y3771221D01*
X2293477Y3771983D01*
X2295001Y3772237D01*
X2294890Y3772154D01*
X2504947Y3772154D01*
X2505003Y3772237D01*
X2506527Y3771983D01*
X2508051Y3771221D01*
X2509067Y3770205D01*
X2509829Y3768681D01*
X2510083Y3767157D01*
X2510027Y3767073D01*
X2510027Y3672078D01*
X2510083Y3672156D01*
X2509829Y3670632D01*
X2509067Y3669108D01*
X2508051Y3668092D01*
X2506527Y3667330D01*
X2505003Y3667076D01*
X2504947Y3666997D01*
G37*
G36*
X2294890Y3793997D02*
G01*
X2295001Y3794076D01*
X2293477Y3794330D01*
X2291953Y3795092D01*
X2290937Y3796108D01*
X2290175Y3797632D01*
X2289921Y3799156D01*
X2289809Y3799078D01*
X2289809Y3894073D01*
X2289921Y3894157D01*
X2290175Y3895681D01*
X2290937Y3897205D01*
X2291953Y3898221D01*
X2293477Y3898983D01*
X2295001Y3899237D01*
X2294890Y3899154D01*
X2504947Y3899154D01*
X2505003Y3899237D01*
X2506527Y3898983D01*
X2508051Y3898221D01*
X2509067Y3897205D01*
X2509829Y3895681D01*
X2510083Y3894157D01*
X2510027Y3894073D01*
X2510027Y3799078D01*
X2510083Y3799156D01*
X2509829Y3797632D01*
X2509067Y3796108D01*
X2508051Y3795092D01*
X2506527Y3794330D01*
X2505003Y3794076D01*
X2504947Y3793997D01*
G37*
G36*
X2294890Y3920997D02*
G01*
X2295001Y3921076D01*
X2293477Y3921330D01*
X2291953Y3922092D01*
X2290937Y3923108D01*
X2290175Y3924632D01*
X2289921Y3926156D01*
X2289809Y3926078D01*
X2289809Y4021073D01*
X2289921Y4021157D01*
X2290175Y4022681D01*
X2290937Y4024205D01*
X2291953Y4025221D01*
X2293477Y4025983D01*
X2295001Y4026237D01*
X2294890Y4026154D01*
X2504947Y4026154D01*
X2505003Y4026237D01*
X2506527Y4025983D01*
X2508051Y4025221D01*
X2509067Y4024205D01*
X2509829Y4022681D01*
X2510083Y4021157D01*
X2510027Y4021073D01*
X2510027Y3926078D01*
X2510083Y3926156D01*
X2509829Y3924632D01*
X2509067Y3923108D01*
X2508051Y3922092D01*
X2506527Y3921330D01*
X2505003Y3921076D01*
X2504947Y3920997D01*
G37*
G36*
X2294890Y4047997D02*
G01*
X2295001Y4048076D01*
X2293477Y4048330D01*
X2291953Y4049092D01*
X2290937Y4050108D01*
X2290175Y4051632D01*
X2289921Y4053156D01*
X2289809Y4053078D01*
X2289809Y4148073D01*
X2289921Y4148157D01*
X2290175Y4149681D01*
X2290937Y4151205D01*
X2291953Y4152221D01*
X2293477Y4152983D01*
X2295001Y4153237D01*
X2294890Y4153154D01*
X2504947Y4153154D01*
X2505003Y4153237D01*
X2506527Y4152983D01*
X2508051Y4152221D01*
X2509067Y4151205D01*
X2509829Y4149681D01*
X2510083Y4148157D01*
X2510027Y4148073D01*
X2510027Y4053078D01*
X2510083Y4053156D01*
X2509829Y4051632D01*
X2509067Y4050108D01*
X2508051Y4049092D01*
X2506527Y4048330D01*
X2505003Y4048076D01*
X2504947Y4047997D01*
G37*
G36*
X2294890Y4174997D02*
G01*
X2295001Y4175076D01*
X2293477Y4175330D01*
X2291953Y4176092D01*
X2290937Y4177108D01*
X2290175Y4178632D01*
X2289921Y4180156D01*
X2289809Y4180078D01*
X2289809Y4275073D01*
X2289921Y4275157D01*
X2290175Y4276681D01*
X2290937Y4278205D01*
X2291953Y4279221D01*
X2293477Y4279983D01*
X2295001Y4280237D01*
X2294890Y4280154D01*
X2504947Y4280154D01*
X2505003Y4280237D01*
X2506527Y4279983D01*
X2508051Y4279221D01*
X2509067Y4278205D01*
X2509829Y4276681D01*
X2510083Y4275157D01*
X2510027Y4275073D01*
X2510027Y4180078D01*
X2510083Y4180156D01*
X2509829Y4178632D01*
X2509067Y4177108D01*
X2508051Y4176092D01*
X2506527Y4175330D01*
X2505003Y4175076D01*
X2504947Y4174997D01*
G37*
G36*
X1283462Y3387597D02*
G01*
X1283520Y3387661D01*
X1281996Y3387915D01*
X1280472Y3388677D01*
X1279456Y3389693D01*
X1278694Y3391217D01*
X1278440Y3392741D01*
X1278381Y3392678D01*
X1278381Y3525773D01*
X1278440Y3525743D01*
X1278694Y3527267D01*
X1279456Y3528791D01*
X1280472Y3529807D01*
X1281996Y3530569D01*
X1283520Y3530823D01*
X1283462Y3530854D01*
X1416557Y3530854D01*
X1416519Y3530823D01*
X1418043Y3530569D01*
X1419567Y3529807D01*
X1420583Y3528791D01*
X1421345Y3527267D01*
X1421599Y3525743D01*
X1421637Y3525773D01*
X1421637Y3392678D01*
X1421599Y3392741D01*
X1421345Y3391217D01*
X1420583Y3389693D01*
X1419567Y3388677D01*
X1418043Y3387915D01*
X1416519Y3387661D01*
X1416557Y3387597D01*
G37*
G36*
X1100073Y3387597D02*
G01*
X1100023Y3387651D01*
X1098499Y3387905D01*
X1096975Y3388667D01*
X1095959Y3389683D01*
X1095197Y3391207D01*
X1094943Y3392731D01*
X1094994Y3392678D01*
X1094994Y3525773D01*
X1094943Y3525733D01*
X1095197Y3527257D01*
X1095959Y3528781D01*
X1096975Y3529797D01*
X1098499Y3530559D01*
X1100023Y3530813D01*
X1100073Y3530854D01*
X1232915Y3530854D01*
X1233022Y3530813D01*
X1234546Y3530559D01*
X1236070Y3529797D01*
X1237086Y3528781D01*
X1237848Y3527257D01*
X1238102Y3525733D01*
X1237995Y3525773D01*
X1237995Y3392678D01*
X1238102Y3392731D01*
X1237848Y3391207D01*
X1237086Y3389683D01*
X1236070Y3388667D01*
X1234546Y3387905D01*
X1233022Y3387651D01*
X1232915Y3387597D01*
G37*
G36*
X1467104Y3387597D02*
G01*
X1467017Y3387651D01*
X1465493Y3387905D01*
X1463969Y3388667D01*
X1462953Y3389683D01*
X1462191Y3391207D01*
X1461937Y3392731D01*
X1462023Y3392678D01*
X1462023Y3525773D01*
X1461937Y3525733D01*
X1462191Y3527257D01*
X1462953Y3528781D01*
X1463969Y3529797D01*
X1465493Y3530559D01*
X1467017Y3530813D01*
X1467104Y3530854D01*
X1599945Y3530854D01*
X1600017Y3530813D01*
X1601541Y3530559D01*
X1603065Y3529797D01*
X1604081Y3528781D01*
X1604843Y3527257D01*
X1605097Y3525733D01*
X1605026Y3525773D01*
X1605026Y3392678D01*
X1605097Y3392731D01*
X1604843Y3391207D01*
X1604081Y3389683D01*
X1603065Y3388667D01*
X1601541Y3387905D01*
X1600017Y3387651D01*
X1599945Y3387597D01*
G37*
G36*
X1467017Y3571161D02*
G01*
X1465493Y3571415D01*
X1463969Y3572177D01*
X1462953Y3573193D01*
X1462191Y3574717D01*
X1461937Y3576241D01*
X1462023Y3576320D01*
X1462023Y3709162D01*
X1461937Y3709243D01*
X1462191Y3710767D01*
X1462953Y3712291D01*
X1463969Y3713307D01*
X1465493Y3714069D01*
X1467017Y3714323D01*
X1467104Y3714242D01*
X1599945Y3714242D01*
X1600017Y3714323D01*
X1601541Y3714069D01*
X1603065Y3713307D01*
X1604081Y3712291D01*
X1604843Y3710767D01*
X1605097Y3709243D01*
X1605026Y3709162D01*
X1605026Y3576320D01*
X1605097Y3576241D01*
X1604843Y3574717D01*
X1604081Y3573193D01*
X1603065Y3572177D01*
X1601541Y3571415D01*
X1600017Y3571161D01*
X1599945Y3571239D01*
X1467104Y3571239D01*
G37*
G36*
X1283507Y3571161D02*
G01*
X1281983Y3571415D01*
X1280459Y3572177D01*
X1279443Y3573193D01*
X1278681Y3574717D01*
X1278427Y3576241D01*
X1278381Y3576320D01*
X1278381Y3709162D01*
X1278427Y3709243D01*
X1278681Y3710767D01*
X1279443Y3712291D01*
X1280459Y3713307D01*
X1281983Y3714069D01*
X1283507Y3714323D01*
X1283462Y3714242D01*
X1416557Y3714242D01*
X1416507Y3714323D01*
X1418031Y3714069D01*
X1419555Y3713307D01*
X1420571Y3712291D01*
X1421333Y3710767D01*
X1421587Y3709243D01*
X1421637Y3709162D01*
X1421637Y3576320D01*
X1421587Y3576241D01*
X1421333Y3574717D01*
X1420571Y3573193D01*
X1419555Y3572177D01*
X1418031Y3571415D01*
X1416507Y3571161D01*
X1416557Y3571239D01*
X1283462Y3571239D01*
G37*
G36*
X1100023Y3571161D02*
G01*
X1098499Y3571415D01*
X1096975Y3572177D01*
X1095959Y3573193D01*
X1095197Y3574717D01*
X1094943Y3576241D01*
X1094994Y3576320D01*
X1094994Y3709162D01*
X1094943Y3709243D01*
X1095197Y3710767D01*
X1095959Y3712291D01*
X1096975Y3713307D01*
X1098499Y3714069D01*
X1100023Y3714323D01*
X1100073Y3714242D01*
X1232915Y3714242D01*
X1233022Y3714323D01*
X1234546Y3714069D01*
X1236070Y3713307D01*
X1237086Y3712291D01*
X1237848Y3710767D01*
X1238102Y3709243D01*
X1237995Y3709162D01*
X1237995Y3576320D01*
X1238102Y3576241D01*
X1237848Y3574717D01*
X1237086Y3573193D01*
X1236070Y3572177D01*
X1234546Y3571415D01*
X1233022Y3571161D01*
X1232915Y3571239D01*
X1100073Y3571239D01*
G37*
G36*
X1100023Y3204166D02*
G01*
X1098499Y3204420D01*
X1096975Y3205182D01*
X1095959Y3206198D01*
X1095197Y3207722D01*
X1094943Y3209246D01*
X1094994Y3209289D01*
X1094994Y3342131D01*
X1094943Y3342248D01*
X1095197Y3343772D01*
X1095959Y3345296D01*
X1096975Y3346312D01*
X1098499Y3347074D01*
X1100023Y3347328D01*
X1100073Y3347212D01*
X1232915Y3347212D01*
X1233022Y3347328D01*
X1234546Y3347074D01*
X1236070Y3346312D01*
X1237086Y3345296D01*
X1237848Y3343772D01*
X1238102Y3342248D01*
X1237995Y3342131D01*
X1237995Y3209289D01*
X1238102Y3209246D01*
X1237848Y3207722D01*
X1237086Y3206198D01*
X1236070Y3205182D01*
X1234546Y3204420D01*
X1233022Y3204166D01*
X1232915Y3204210D01*
X1100073Y3204210D01*
G37*
G36*
X1283507Y3204166D02*
G01*
X1281983Y3204420D01*
X1280459Y3205182D01*
X1279443Y3206198D01*
X1278681Y3207722D01*
X1278427Y3209246D01*
X1278381Y3209289D01*
X1278381Y3342131D01*
X1278427Y3342248D01*
X1278681Y3343772D01*
X1279443Y3345296D01*
X1280459Y3346312D01*
X1281983Y3347074D01*
X1283507Y3347328D01*
X1283462Y3347212D01*
X1416557Y3347212D01*
X1416507Y3347328D01*
X1418031Y3347074D01*
X1419555Y3346312D01*
X1420571Y3345296D01*
X1421333Y3343772D01*
X1421587Y3342248D01*
X1421637Y3342131D01*
X1421637Y3209289D01*
X1421587Y3209246D01*
X1421333Y3207722D01*
X1420571Y3206198D01*
X1419555Y3205182D01*
X1418031Y3204420D01*
X1416507Y3204166D01*
X1416557Y3204210D01*
X1283462Y3204210D01*
G37*
G36*
X1467015Y3204166D02*
G01*
X1465491Y3204420D01*
X1463967Y3205182D01*
X1462951Y3206198D01*
X1462189Y3207722D01*
X1461935Y3209246D01*
X1462023Y3209289D01*
X1462023Y3342131D01*
X1461935Y3342248D01*
X1462189Y3343772D01*
X1462951Y3345296D01*
X1463967Y3346312D01*
X1465491Y3347074D01*
X1467015Y3347328D01*
X1467104Y3347212D01*
X1599945Y3347212D01*
X1600014Y3347328D01*
X1601538Y3347074D01*
X1603062Y3346312D01*
X1604078Y3345296D01*
X1604840Y3343772D01*
X1605094Y3342248D01*
X1605026Y3342131D01*
X1605026Y3209289D01*
X1605094Y3209246D01*
X1604840Y3207722D01*
X1604078Y3206198D01*
X1603062Y3205182D01*
X1601538Y3204420D01*
X1600014Y3204166D01*
X1599945Y3204210D01*
X1467104Y3204210D01*
G37*
G36*
X1385796Y2135019D02*
G01*
X1384272Y2135273D01*
X1382748Y2136035D01*
X1381732Y2137051D01*
X1380970Y2138575D01*
X1380716Y2140099D01*
X1380744Y2140204D01*
X1380744Y2247137D01*
X1380716Y2247099D01*
X1380970Y2248623D01*
X1381732Y2250147D01*
X1382748Y2251163D01*
X1384272Y2251925D01*
X1385796Y2252179D01*
X1385823Y2252218D01*
X1445768Y2252218D01*
X1445795Y2252179D01*
X1447319Y2251925D01*
X1448843Y2251163D01*
X1449859Y2250147D01*
X1450621Y2248623D01*
X1450875Y2247099D01*
X1450847Y2247137D01*
X1450847Y2140204D01*
X1450875Y2140099D01*
X1450621Y2138575D01*
X1449859Y2137051D01*
X1448843Y2136035D01*
X1447319Y2135273D01*
X1445795Y2135019D01*
X1445768Y2135123D01*
X1385823Y2135123D01*
G37*
G36*
X1195804Y2135019D02*
G01*
X1194280Y2135273D01*
X1192756Y2136035D01*
X1191740Y2137051D01*
X1190978Y2138575D01*
X1190724Y2140099D01*
X1190752Y2140204D01*
X1190752Y2247137D01*
X1190724Y2247099D01*
X1190978Y2248623D01*
X1191740Y2250147D01*
X1192756Y2251163D01*
X1194280Y2251925D01*
X1195804Y2252179D01*
X1195831Y2252218D01*
X1255776Y2252218D01*
X1255803Y2252179D01*
X1257327Y2251925D01*
X1258851Y2251163D01*
X1259867Y2250147D01*
X1260629Y2248623D01*
X1260883Y2247099D01*
X1260855Y2247137D01*
X1260855Y2140204D01*
X1260883Y2140099D01*
X1260629Y2138575D01*
X1259867Y2137051D01*
X1258851Y2136035D01*
X1257327Y2135273D01*
X1255803Y2135019D01*
X1255776Y2135123D01*
X1195831Y2135123D01*
G37*
G36*
X1290828Y1887981D02*
G01*
X1290800Y1888020D01*
X1289276Y1888274D01*
X1287752Y1889036D01*
X1286736Y1890052D01*
X1285974Y1891576D01*
X1285720Y1893100D01*
X1285747Y1893062D01*
X1285747Y1999995D01*
X1285720Y2000100D01*
X1285974Y2001624D01*
X1286736Y2003148D01*
X1287752Y2004164D01*
X1289276Y2004926D01*
X1290800Y2005180D01*
X1290828Y2005076D01*
X1350771Y2005076D01*
X1350799Y2005180D01*
X1352323Y2004926D01*
X1353847Y2004164D01*
X1354863Y2003148D01*
X1355625Y2001624D01*
X1355879Y2000100D01*
X1355852Y1999995D01*
X1355852Y1893062D01*
X1355879Y1893100D01*
X1355625Y1891576D01*
X1354863Y1890052D01*
X1353847Y1889036D01*
X1352323Y1888274D01*
X1350799Y1888020D01*
X1350771Y1887981D01*
G37*
G36*
X1868396Y2135019D02*
G01*
X1866872Y2135273D01*
X1865348Y2136035D01*
X1864332Y2137051D01*
X1863570Y2138575D01*
X1863316Y2140099D01*
X1863344Y2140204D01*
X1863344Y2247137D01*
X1863316Y2247099D01*
X1863570Y2248623D01*
X1864332Y2250147D01*
X1865348Y2251163D01*
X1866872Y2251925D01*
X1868396Y2252179D01*
X1868423Y2252218D01*
X1928368Y2252218D01*
X1928395Y2252179D01*
X1929919Y2251925D01*
X1931443Y2251163D01*
X1932459Y2250147D01*
X1933221Y2248623D01*
X1933475Y2247099D01*
X1933447Y2247137D01*
X1933447Y2140204D01*
X1933475Y2140099D01*
X1933221Y2138575D01*
X1932459Y2137051D01*
X1931443Y2136035D01*
X1929919Y2135273D01*
X1928395Y2135019D01*
X1928368Y2135123D01*
X1868423Y2135123D01*
G37*
G36*
X1678404Y2135019D02*
G01*
X1676880Y2135273D01*
X1675356Y2136035D01*
X1674340Y2137051D01*
X1673578Y2138575D01*
X1673324Y2140099D01*
X1673352Y2140204D01*
X1673352Y2247137D01*
X1673324Y2247099D01*
X1673578Y2248623D01*
X1674340Y2250147D01*
X1675356Y2251163D01*
X1676880Y2251925D01*
X1678404Y2252179D01*
X1678431Y2252218D01*
X1738376Y2252218D01*
X1738403Y2252179D01*
X1739927Y2251925D01*
X1741451Y2251163D01*
X1742467Y2250147D01*
X1743229Y2248623D01*
X1743483Y2247099D01*
X1743455Y2247137D01*
X1743455Y2140204D01*
X1743483Y2140099D01*
X1743229Y2138575D01*
X1742467Y2137051D01*
X1741451Y2136035D01*
X1739927Y2135273D01*
X1738403Y2135019D01*
X1738376Y2135123D01*
X1678431Y2135123D01*
G37*
G36*
X1773428Y1887981D02*
G01*
X1773400Y1888020D01*
X1771876Y1888274D01*
X1770352Y1889036D01*
X1769336Y1890052D01*
X1768574Y1891576D01*
X1768320Y1893100D01*
X1768347Y1893062D01*
X1768347Y1999995D01*
X1768320Y2000100D01*
X1768574Y2001624D01*
X1769336Y2003148D01*
X1770352Y2004164D01*
X1771876Y2004926D01*
X1773400Y2005180D01*
X1773428Y2005076D01*
X1833371Y2005076D01*
X1833399Y2005180D01*
X1834923Y2004926D01*
X1836447Y2004164D01*
X1837463Y2003148D01*
X1838225Y2001624D01*
X1838479Y2000100D01*
X1838452Y1999995D01*
X1838452Y1893062D01*
X1838479Y1893100D01*
X1838225Y1891576D01*
X1837463Y1890052D01*
X1836447Y1889036D01*
X1834923Y1888274D01*
X1833399Y1888020D01*
X1833371Y1887981D01*
G37*
G36*
X600202Y1701545D02*
G01*
X600100Y1701619D01*
X598576Y1701873D01*
X597052Y1702635D01*
X596036Y1703651D01*
X595274Y1705175D01*
X595020Y1706699D01*
X595121Y1706626D01*
X595121Y1940813D01*
X595020Y1940699D01*
X595274Y1942223D01*
X596036Y1943747D01*
X597052Y1944763D01*
X598576Y1945525D01*
X600100Y1945779D01*
X600202Y1945894D01*
X697992Y1945894D01*
X698101Y1945779D01*
X699625Y1945525D01*
X701149Y1944763D01*
X702165Y1943747D01*
X702927Y1942223D01*
X703181Y1940699D01*
X703071Y1940813D01*
X703071Y1706626D01*
X703181Y1706699D01*
X702927Y1705175D01*
X702165Y1703651D01*
X701149Y1702635D01*
X699625Y1701873D01*
X698101Y1701619D01*
X697992Y1701545D01*
G37*
G36*
X370078Y1701545D02*
G01*
X370100Y1701619D01*
X368576Y1701873D01*
X367052Y1702635D01*
X366036Y1703651D01*
X365274Y1705175D01*
X365020Y1706699D01*
X364997Y1706626D01*
X364997Y1940813D01*
X365020Y1940699D01*
X365274Y1942223D01*
X366036Y1943747D01*
X367052Y1944763D01*
X368576Y1945525D01*
X370100Y1945779D01*
X370078Y1945894D01*
X468121Y1945894D01*
X468099Y1945779D01*
X469623Y1945525D01*
X471147Y1944763D01*
X472163Y1943747D01*
X472925Y1942223D01*
X473179Y1940699D01*
X473202Y1940813D01*
X473202Y1706626D01*
X473179Y1706699D01*
X472925Y1705175D01*
X472163Y1703651D01*
X471147Y1702635D01*
X469623Y1701873D01*
X468099Y1701619D01*
X468121Y1701545D01*
G37*
G36*
X140207Y1701545D02*
G01*
X140098Y1701619D01*
X138574Y1701873D01*
X137050Y1702635D01*
X136034Y1703651D01*
X135272Y1705175D01*
X135018Y1706699D01*
X135128Y1706626D01*
X135128Y1940813D01*
X135018Y1940699D01*
X135272Y1942223D01*
X136034Y1943747D01*
X137050Y1944763D01*
X138574Y1945525D01*
X140098Y1945779D01*
X140207Y1945894D01*
X237997Y1945894D01*
X238099Y1945779D01*
X239623Y1945525D01*
X241147Y1944763D01*
X242163Y1943747D01*
X242925Y1942223D01*
X243179Y1940699D01*
X243078Y1940813D01*
X243078Y1706626D01*
X243179Y1706699D01*
X242925Y1705175D01*
X242163Y1703651D01*
X241147Y1702635D01*
X239623Y1701873D01*
X238099Y1701619D01*
X237997Y1701545D01*
G37*
G36*
X239013Y1127505D02*
G01*
X239100Y1127620D01*
X237576Y1127874D01*
X236052Y1128636D01*
X235036Y1129652D01*
X234274Y1131176D01*
X234020Y1132700D01*
X233934Y1132586D01*
X233934Y1366773D01*
X234020Y1366700D01*
X234274Y1368224D01*
X235036Y1369748D01*
X236052Y1370764D01*
X237576Y1371526D01*
X239100Y1371780D01*
X239013Y1371854D01*
X599186Y1371854D01*
X599099Y1371780D01*
X600623Y1371526D01*
X602147Y1370764D01*
X603163Y1369748D01*
X603925Y1368224D01*
X604179Y1366700D01*
X604265Y1366773D01*
X604265Y1132586D01*
X604179Y1132700D01*
X603925Y1131176D01*
X603163Y1129652D01*
X602147Y1128636D01*
X600623Y1127874D01*
X599099Y1127620D01*
X599186Y1127505D01*
G37*
G36*
X2740101Y3025119D02*
G01*
X2738577Y3025373D01*
X2737053Y3026135D01*
X2736037Y3027151D01*
X2735275Y3028675D01*
X2735021Y3030199D01*
X2735072Y3030220D01*
X2735072Y3116579D01*
X2735021Y3116600D01*
X2735275Y3118124D01*
X2736037Y3119648D01*
X2737053Y3120664D01*
X2738577Y3121426D01*
X2740101Y3121680D01*
X2740152Y3121660D01*
X2820670Y3121660D01*
X2820748Y3121680D01*
X2822272Y3121426D01*
X2823796Y3120664D01*
X2824812Y3119648D01*
X2825574Y3118124D01*
X2825828Y3116600D01*
X2825750Y3116579D01*
X2825750Y3030220D01*
X2825828Y3030199D01*
X2825574Y3028675D01*
X2824812Y3027151D01*
X2823796Y3026135D01*
X2822272Y3025373D01*
X2820748Y3025119D01*
X2820670Y3025139D01*
X2740152Y3025139D01*
G37*
G36*
X2589451Y3025119D02*
G01*
X2587927Y3025373D01*
X2586403Y3026135D01*
X2585387Y3027151D01*
X2584625Y3028675D01*
X2584371Y3030199D01*
X2584450Y3030220D01*
X2584450Y3116579D01*
X2584371Y3116600D01*
X2584625Y3118124D01*
X2585387Y3119648D01*
X2586403Y3120664D01*
X2587927Y3121426D01*
X2589451Y3121680D01*
X2589529Y3121660D01*
X2670047Y3121660D01*
X2670098Y3121680D01*
X2671622Y3121426D01*
X2673146Y3120664D01*
X2674162Y3119648D01*
X2674924Y3118124D01*
X2675178Y3116600D01*
X2675127Y3116579D01*
X2675127Y3030220D01*
X2675178Y3030199D01*
X2674924Y3028675D01*
X2674162Y3027151D01*
X2673146Y3026135D01*
X2671622Y3025373D01*
X2670098Y3025119D01*
X2670047Y3025139D01*
X2589529Y3025139D01*
G37*
G36*
X2740101Y3558519D02*
G01*
X2738577Y3558773D01*
X2737053Y3559535D01*
X2736037Y3560551D01*
X2735275Y3562075D01*
X2735021Y3563599D01*
X2735072Y3563620D01*
X2735072Y3649979D01*
X2735021Y3650000D01*
X2735275Y3651524D01*
X2736037Y3653048D01*
X2737053Y3654064D01*
X2738577Y3654826D01*
X2740101Y3655080D01*
X2740152Y3655060D01*
X2820670Y3655060D01*
X2820748Y3655080D01*
X2822272Y3654826D01*
X2823796Y3654064D01*
X2824812Y3653048D01*
X2825574Y3651524D01*
X2825828Y3650000D01*
X2825750Y3649979D01*
X2825750Y3563620D01*
X2825828Y3563599D01*
X2825574Y3562075D01*
X2824812Y3560551D01*
X2823796Y3559535D01*
X2822272Y3558773D01*
X2820748Y3558519D01*
X2820670Y3558539D01*
X2740152Y3558539D01*
G37*
G36*
X2589451Y3558519D02*
G01*
X2587927Y3558773D01*
X2586403Y3559535D01*
X2585387Y3560551D01*
X2584625Y3562075D01*
X2584371Y3563599D01*
X2584450Y3563620D01*
X2584450Y3649979D01*
X2584371Y3650000D01*
X2584625Y3651524D01*
X2585387Y3653048D01*
X2586403Y3654064D01*
X2587927Y3654826D01*
X2589451Y3655080D01*
X2589529Y3655060D01*
X2670047Y3655060D01*
X2670098Y3655080D01*
X2671622Y3654826D01*
X2673146Y3654064D01*
X2674162Y3653048D01*
X2674924Y3651524D01*
X2675178Y3650000D01*
X2675127Y3649979D01*
X2675127Y3563620D01*
X2675178Y3563599D01*
X2674924Y3562075D01*
X2674162Y3560551D01*
X2673146Y3559535D01*
X2671622Y3558773D01*
X2670098Y3558519D01*
X2670047Y3558539D01*
X2589529Y3558539D01*
G37*
G36*
X2740101Y2250419D02*
G01*
X2738577Y2250673D01*
X2737053Y2251435D01*
X2736037Y2252451D01*
X2735275Y2253975D01*
X2735021Y2255499D01*
X2735072Y2255520D01*
X2735072Y2341879D01*
X2735021Y2341900D01*
X2735275Y2343424D01*
X2736037Y2344948D01*
X2737053Y2345964D01*
X2738577Y2346726D01*
X2740101Y2346980D01*
X2740152Y2346960D01*
X2820670Y2346960D01*
X2820748Y2346980D01*
X2822272Y2346726D01*
X2823796Y2345964D01*
X2824812Y2344948D01*
X2825574Y2343424D01*
X2825828Y2341900D01*
X2825750Y2341879D01*
X2825750Y2255520D01*
X2825828Y2255499D01*
X2825574Y2253975D01*
X2824812Y2252451D01*
X2823796Y2251435D01*
X2822272Y2250673D01*
X2820748Y2250419D01*
X2820670Y2250439D01*
X2740152Y2250439D01*
G37*
G36*
X2589451Y2250419D02*
G01*
X2587927Y2250673D01*
X2586403Y2251435D01*
X2585387Y2252451D01*
X2584625Y2253975D01*
X2584371Y2255499D01*
X2584450Y2255520D01*
X2584450Y2341879D01*
X2584371Y2341900D01*
X2584625Y2343424D01*
X2585387Y2344948D01*
X2586403Y2345964D01*
X2587927Y2346726D01*
X2589451Y2346980D01*
X2589529Y2346960D01*
X2670047Y2346960D01*
X2670098Y2346980D01*
X2671622Y2346726D01*
X2673146Y2345964D01*
X2674162Y2344948D01*
X2674924Y2343424D01*
X2675178Y2341900D01*
X2675127Y2341879D01*
X2675127Y2255520D01*
X2675178Y2255499D01*
X2674924Y2253975D01*
X2674162Y2252451D01*
X2673146Y2251435D01*
X2671622Y2250673D01*
X2670098Y2250419D01*
X2670047Y2250439D01*
X2589529Y2250439D01*
G37*
G36*
X2589451Y2783819D02*
G01*
X2587927Y2784073D01*
X2586403Y2784835D01*
X2585387Y2785851D01*
X2584625Y2787375D01*
X2584371Y2788899D01*
X2584450Y2788920D01*
X2584450Y2875279D01*
X2584371Y2875300D01*
X2584625Y2876824D01*
X2585387Y2878348D01*
X2586403Y2879364D01*
X2587927Y2880126D01*
X2589451Y2880380D01*
X2589529Y2880360D01*
X2670047Y2880360D01*
X2670098Y2880380D01*
X2671622Y2880126D01*
X2673146Y2879364D01*
X2674162Y2878348D01*
X2674924Y2876824D01*
X2675178Y2875300D01*
X2675127Y2875279D01*
X2675127Y2788920D01*
X2675178Y2788899D01*
X2674924Y2787375D01*
X2674162Y2785851D01*
X2673146Y2784835D01*
X2671622Y2784073D01*
X2670098Y2783819D01*
X2670047Y2783839D01*
X2589529Y2783839D01*
G37*
G36*
X2740101Y2783819D02*
G01*
X2738577Y2784073D01*
X2737053Y2784835D01*
X2736037Y2785851D01*
X2735275Y2787375D01*
X2735021Y2788899D01*
X2735072Y2788920D01*
X2735072Y2875279D01*
X2735021Y2875300D01*
X2735275Y2876824D01*
X2736037Y2878348D01*
X2737053Y2879364D01*
X2738577Y2880126D01*
X2740101Y2880380D01*
X2740152Y2880360D01*
X2820670Y2880360D01*
X2820748Y2880380D01*
X2822272Y2880126D01*
X2823796Y2879364D01*
X2824812Y2878348D01*
X2825574Y2876824D01*
X2825828Y2875300D01*
X2825750Y2875279D01*
X2825750Y2788920D01*
X2825828Y2788899D01*
X2825574Y2787375D01*
X2824812Y2785851D01*
X2823796Y2784835D01*
X2822272Y2784073D01*
X2820748Y2783819D01*
X2820670Y2783839D01*
X2740152Y2783839D01*
G37*
G36*
X263601Y3926819D02*
G01*
X262077Y3927073D01*
X260553Y3927835D01*
X259537Y3928851D01*
X258775Y3930375D01*
X258521Y3931899D01*
X258571Y3931920D01*
X258571Y4018279D01*
X258521Y4018300D01*
X258775Y4019824D01*
X259537Y4021348D01*
X260553Y4022364D01*
X262077Y4023126D01*
X263601Y4023380D01*
X263652Y4023360D01*
X344170Y4023360D01*
X344248Y4023380D01*
X345772Y4023126D01*
X347296Y4022364D01*
X348312Y4021348D01*
X349074Y4019824D01*
X349328Y4018300D01*
X349250Y4018279D01*
X349250Y3931920D01*
X349328Y3931899D01*
X349074Y3930375D01*
X348312Y3928851D01*
X347296Y3927835D01*
X345772Y3927073D01*
X344248Y3926819D01*
X344170Y3926839D01*
X263652Y3926839D01*
G37*
G36*
X112951Y3926819D02*
G01*
X111427Y3927073D01*
X109903Y3927835D01*
X108887Y3928851D01*
X108125Y3930375D01*
X107871Y3931899D01*
X107950Y3931920D01*
X107950Y4018279D01*
X107871Y4018300D01*
X108125Y4019824D01*
X108887Y4021348D01*
X109903Y4022364D01*
X111427Y4023126D01*
X112951Y4023380D01*
X113029Y4023360D01*
X193547Y4023360D01*
X193598Y4023380D01*
X195122Y4023126D01*
X196646Y4022364D01*
X197662Y4021348D01*
X198424Y4019824D01*
X198678Y4018300D01*
X198628Y4018279D01*
X198628Y3931920D01*
X198678Y3931899D01*
X198424Y3930375D01*
X197662Y3928851D01*
X196646Y3927835D01*
X195122Y3927073D01*
X193598Y3926819D01*
X193547Y3926839D01*
X113029Y3926839D01*
G37*
G36*
X1518899Y2150821D02*
G01*
X1517375Y2151075D01*
X1515851Y2151837D01*
X1514835Y2152853D01*
X1514073Y2154377D01*
X1513819Y2155901D01*
X1513839Y2155952D01*
X1513839Y2236470D01*
X1513819Y2236548D01*
X1514073Y2238072D01*
X1514835Y2239596D01*
X1515851Y2240612D01*
X1517375Y2241374D01*
X1518899Y2241628D01*
X1518920Y2241550D01*
X1605279Y2241550D01*
X1605300Y2241628D01*
X1606824Y2241374D01*
X1608348Y2240612D01*
X1609364Y2239596D01*
X1610126Y2238072D01*
X1610380Y2236548D01*
X1610360Y2236470D01*
X1610360Y2155952D01*
X1610380Y2155901D01*
X1610126Y2154377D01*
X1609364Y2152853D01*
X1608348Y2151837D01*
X1606824Y2151075D01*
X1605300Y2150821D01*
X1605279Y2150871D01*
X1518920Y2150871D01*
G37*
G36*
X1518899Y2000171D02*
G01*
X1517375Y2000425D01*
X1515851Y2001187D01*
X1514835Y2002203D01*
X1514073Y2003727D01*
X1513819Y2005251D01*
X1513839Y2005329D01*
X1513839Y2085847D01*
X1513819Y2085898D01*
X1514073Y2087422D01*
X1514835Y2088946D01*
X1515851Y2089962D01*
X1517375Y2090724D01*
X1518899Y2090978D01*
X1518920Y2090928D01*
X1605279Y2090928D01*
X1605300Y2090978D01*
X1606824Y2090724D01*
X1608348Y2089962D01*
X1609364Y2088946D01*
X1610126Y2087422D01*
X1610380Y2085898D01*
X1610360Y2085847D01*
X1610360Y2005329D01*
X1610380Y2005251D01*
X1610126Y2003727D01*
X1609364Y2002203D01*
X1608348Y2001187D01*
X1606824Y2000425D01*
X1605300Y2000171D01*
X1605279Y2000250D01*
X1518920Y2000250D01*
G37*
G36*
X2001499Y2150821D02*
G01*
X1999975Y2151075D01*
X1998451Y2151837D01*
X1997435Y2152853D01*
X1996673Y2154377D01*
X1996419Y2155901D01*
X1996440Y2155952D01*
X1996440Y2236470D01*
X1996419Y2236548D01*
X1996673Y2238072D01*
X1997435Y2239596D01*
X1998451Y2240612D01*
X1999975Y2241374D01*
X2001499Y2241628D01*
X2001520Y2241550D01*
X2087879Y2241550D01*
X2087900Y2241628D01*
X2089424Y2241374D01*
X2090948Y2240612D01*
X2091964Y2239596D01*
X2092726Y2238072D01*
X2092980Y2236548D01*
X2092959Y2236470D01*
X2092959Y2155952D01*
X2092980Y2155901D01*
X2092726Y2154377D01*
X2091964Y2152853D01*
X2090948Y2151837D01*
X2089424Y2151075D01*
X2087900Y2150821D01*
X2087879Y2150871D01*
X2001520Y2150871D01*
G37*
G36*
X2001499Y2000171D02*
G01*
X1999975Y2000425D01*
X1998451Y2001187D01*
X1997435Y2002203D01*
X1996673Y2003727D01*
X1996419Y2005251D01*
X1996440Y2005329D01*
X1996440Y2085847D01*
X1996419Y2085898D01*
X1996673Y2087422D01*
X1997435Y2088946D01*
X1998451Y2089962D01*
X1999975Y2090724D01*
X2001499Y2090978D01*
X2001520Y2090928D01*
X2087879Y2090928D01*
X2087900Y2090978D01*
X2089424Y2090724D01*
X2090948Y2089962D01*
X2091964Y2088946D01*
X2092726Y2087422D01*
X2092980Y2085898D01*
X2092959Y2085847D01*
X2092959Y2005329D01*
X2092980Y2005251D01*
X2092726Y2003727D01*
X2091964Y2002203D01*
X2090948Y2001187D01*
X2089424Y2000425D01*
X2087900Y2000171D01*
X2087879Y2000250D01*
X2001520Y2000250D01*
G37*
G36*
X239400Y2732410D02*
G01*
X237876Y2732664D01*
X236352Y2733426D01*
X235336Y2734442D01*
X234574Y2735966D01*
X234320Y2737490D01*
X234442Y2737612D01*
X234442Y2817368D01*
X234320Y2817489D01*
X234574Y2819013D01*
X235336Y2820537D01*
X236352Y2821553D01*
X237876Y2822315D01*
X239400Y2822569D01*
X239521Y2822447D01*
X319278Y2822447D01*
X319399Y2822569D01*
X320923Y2822315D01*
X322447Y2821553D01*
X323463Y2820537D01*
X324225Y2819013D01*
X324479Y2817489D01*
X324357Y2817368D01*
X324357Y2737612D01*
X324479Y2737490D01*
X324225Y2735966D01*
X323463Y2734442D01*
X322447Y2733426D01*
X320923Y2732664D01*
X319399Y2732410D01*
X319278Y2732531D01*
X239521Y2732531D01*
G37*
G36*
X239400Y2562230D02*
G01*
X237876Y2562484D01*
X236352Y2563246D01*
X235336Y2564262D01*
X234574Y2565786D01*
X234320Y2567310D01*
X234442Y2567431D01*
X234442Y2647187D01*
X234320Y2647309D01*
X234574Y2648833D01*
X235336Y2650357D01*
X236352Y2651373D01*
X237876Y2652135D01*
X239400Y2652389D01*
X239521Y2652268D01*
X319278Y2652268D01*
X319399Y2652389D01*
X320923Y2652135D01*
X322447Y2651373D01*
X323463Y2650357D01*
X324225Y2648833D01*
X324479Y2647309D01*
X324357Y2647187D01*
X324357Y2567431D01*
X324479Y2567310D01*
X324225Y2565786D01*
X323463Y2564262D01*
X322447Y2563246D01*
X320923Y2562484D01*
X319399Y2562230D01*
X319278Y2562352D01*
X239521Y2562352D01*
G37*
G36*
X404876Y2691892D02*
G01*
X404799Y2691955D01*
X403275Y2692209D01*
X401751Y2692971D01*
X400735Y2693987D01*
X399973Y2695511D01*
X399719Y2697035D01*
X399795Y2696971D01*
X399795Y2753613D01*
X399719Y2753598D01*
X399973Y2755122D01*
X400735Y2756646D01*
X401751Y2757662D01*
X403275Y2758424D01*
X404799Y2758678D01*
X404876Y2758694D01*
X458723Y2758694D01*
X458800Y2758678D01*
X460324Y2758424D01*
X461848Y2757662D01*
X462864Y2756646D01*
X463626Y2755122D01*
X463880Y2753598D01*
X463804Y2753613D01*
X463804Y2696971D01*
X463880Y2697035D01*
X463626Y2695511D01*
X462864Y2693987D01*
X461848Y2692971D01*
X460324Y2692209D01*
X458800Y2691955D01*
X458723Y2691892D01*
G37*
G36*
X404876Y2778505D02*
G01*
X404799Y2778521D01*
X403275Y2778775D01*
X401751Y2779537D01*
X400735Y2780553D01*
X399973Y2782077D01*
X399719Y2783601D01*
X399795Y2783586D01*
X399795Y2840228D01*
X399719Y2840164D01*
X399973Y2841688D01*
X400735Y2843212D01*
X401751Y2844228D01*
X403275Y2844990D01*
X404799Y2845244D01*
X404876Y2845307D01*
X458723Y2845307D01*
X458800Y2845244D01*
X460324Y2844990D01*
X461848Y2844228D01*
X462864Y2843212D01*
X463626Y2841688D01*
X463880Y2840164D01*
X463804Y2840228D01*
X463804Y2783586D01*
X463880Y2783601D01*
X463626Y2782077D01*
X462864Y2780553D01*
X461848Y2779537D01*
X460324Y2778775D01*
X458800Y2778521D01*
X458723Y2778505D01*
G37*
M02*
