G04 Layer: BottomLayer*
G04 EasyEDA v6.5.9, 2022-07-29 16:18:05*
G04 6a4c66b5a8f34d0fa7dc8df532b4a6e8,9fc4434aafee4760887af2be40c81ba0,10*
G04 Gerber Generator version 0.2*
G04 Scale: 100 percent, Rotated: No, Reflected: No *
G04 Dimensions in millimeters *
G04 leading zeros omitted , absolute positions ,4 integer and 5 decimal *
%FSLAX45Y45*%
%MOMM*%

%ADD10C,0.2540*%
%ADD11C,2.3749*%
%ADD12C,0.9906*%
%ADD13C,0.6096*%

%LPD*%
D10*
X2616200Y2425700D02*
G01*
X2616200Y2578100D01*
X2857500Y2578100D01*
X1498600Y1790700D02*
G01*
X1498600Y2247900D01*
X2857500Y2247900D01*
X2857500Y3378200D01*
X2616200Y3378200D01*
X2616200Y3479800D01*
X1511300Y1851660D02*
G01*
X292100Y1854200D01*
X292100Y2159000D01*
X228600Y2159000D01*
X228600Y2235200D02*
G01*
X292100Y2298700D01*
X2527300Y2298700D01*
X2527300Y3302000D01*
X2705100Y3302000D01*
X2705100Y3200400D01*
D11*
G01*
X2781300Y1651000D03*
G01*
X2273300Y1651000D03*
G01*
X2273300Y1968500D03*
G01*
X2781300Y1968500D03*
D12*
G01*
X2425700Y2159000D03*
G01*
X2628900Y2159000D03*
G01*
X2527300Y1651000D03*
D13*
G01*
X1320800Y2222500D03*
G01*
X2527300Y1968500D03*
G01*
X2590800Y3721100D03*
G01*
X2794000Y3479800D03*
G01*
X2616200Y3479800D03*
G01*
X2705100Y3200400D03*
G01*
X2616200Y2425700D03*
G01*
X2794000Y2425700D03*
G01*
X406400Y4229100D03*
G01*
X2590800Y4229100D03*
G01*
X228600Y2159000D03*
G01*
X228600Y2235200D03*
G01*
X1498600Y1790700D03*
G01*
X1701800Y1790700D03*
G01*
X1905000Y1790700D03*
G01*
X2527300Y2108200D03*
G01*
X1295400Y1790700D03*
G01*
X1905000Y2044700D03*
G01*
X2654300Y1841500D03*
G01*
X2590800Y3848100D03*
G01*
X431800Y2603500D03*
M02*
